G04*
G04 #@! TF.GenerationSoftware,Altium Limited,Altium Designer,24.9.1 (31)*
G04*
G04 Layer_Color=32896*
%FSLAX44Y44*%
%MOMM*%
G71*
G04*
G04 #@! TF.SameCoordinates,F7444FFF-12F3-4AA9-940A-5D6B0AE02ED6*
G04*
G04*
G04 #@! TF.FilePolarity,Positive*
G04*
G01*
G75*
%ADD10C,0.2500*%
%ADD11C,0.2000*%
%ADD12C,0.1500*%
%ADD46R,0.1500X0.6000*%
G36*
X969000Y597900D02*
X966000Y598650D01*
Y597150D01*
X969000Y594150D01*
X971000D01*
X969000Y597900D01*
D02*
G37*
G36*
Y674100D02*
X966000Y674850D01*
Y673350D01*
X969000Y670350D01*
X971000D01*
X969000Y674100D01*
D02*
G37*
D10*
X985250Y677350D02*
G03*
X985250Y677350I-1250J0D01*
G01*
Y601150D02*
G03*
X985250Y601150I-1250J0D01*
G01*
D11*
X966000Y674850D02*
G03*
X970500Y670350I4500J0D01*
G01*
X966000Y598650D02*
G03*
X970500Y594150I4500J0D01*
G01*
X910423Y505618D02*
Y511618D01*
X908423D02*
X910423D01*
X960423Y505618D02*
Y508618D01*
X908423Y505618D02*
Y511618D01*
Y505618D02*
X960423D01*
X910590Y517350D02*
Y523350D01*
X908590Y517350D02*
X910590D01*
X960590Y520350D02*
Y523350D01*
X908590Y517350D02*
Y523350D01*
X960590D01*
X914633Y683418D02*
Y689418D01*
X912633D02*
X914633D01*
X964633Y683418D02*
Y686418D01*
X912633Y683418D02*
Y689418D01*
Y683418D02*
X964633D01*
X914800Y695150D02*
Y701150D01*
X912800Y695150D02*
X914800D01*
X964800Y698150D02*
Y701150D01*
X912800Y695150D02*
Y701150D01*
X964800D01*
X934000Y674850D02*
X968750D01*
X971000Y672600D01*
Y607850D02*
Y672600D01*
X970500Y670350D02*
X971000D01*
X934000Y607850D02*
X971000D01*
X934000D02*
Y674850D01*
Y598650D02*
X968750D01*
X971000Y596400D01*
Y531650D02*
Y596400D01*
X970500Y594150D02*
X971000D01*
X934000Y531650D02*
X971000D01*
X934000D02*
Y598650D01*
D12*
X993170Y507350D02*
Y510350D01*
X965170Y507350D02*
X993170D01*
X965170D02*
Y510350D01*
Y518350D02*
Y521350D01*
X993170D01*
Y518350D02*
Y521350D01*
X979170Y507350D02*
Y521350D01*
X998250Y685150D02*
Y688150D01*
X970250Y685150D02*
X998250D01*
X970250D02*
Y688150D01*
Y696150D02*
Y699150D01*
X998250D01*
Y696150D02*
Y699150D01*
X984250Y685150D02*
Y699150D01*
D46*
X909173Y508618D02*
D03*
X909340Y520350D02*
D03*
X913383Y686418D02*
D03*
X913550Y698150D02*
D03*
M02*
