M48
;Layer_Color=9474304
;FILE_FORMAT=4:4
METRIC,LZ
;TYPE=PLATED
T01F00S00C0.2032
T02F00S00C0.3888
T03F00S00C0.6350
%
T01
X0002996Y0001443
Y0001824
Y0002205
X0005917Y00069412
X0009727
X0007822Y0009317
X0004266Y0009444
X0005282Y0013127
X00060082Y00153086
X00076015Y00151491
X00084599Y00150195
X0008965Y0014651
X0009981Y0014778
X00105811Y00154352
X000833Y0017953
X0007314
X0007822Y0018461
Y0017445
X000833Y0020366
X0009473Y0020239
X0012775Y0020493
Y0020874
Y0021255
X0006171Y0021128
T02
X0005282Y000157
X0007822
X0010362
T03
X000071Y0001824
Y0003729
Y0005634
Y0007539
Y0009444
Y0011349
Y0013254
Y0015159
Y0017064
Y0018969
Y0020874
X0014934
Y0018969
Y0017064
Y0015159
Y0013254
Y0011349
Y0009444
Y0007539
Y0005634
Y0003729
Y0001824
M30
