G04*
G04 #@! TF.GenerationSoftware,Altium Limited,Altium Designer,24.9.1 (31)*
G04*
G04 Layer_Physical_Order=1*
G04 Layer_Color=255*
%FSLAX44Y44*%
%MOMM*%
G71*
G04*
G04 #@! TF.SameCoordinates,F7444FFF-12F3-4AA9-940A-5D6B0AE02ED6*
G04*
G04*
G04 #@! TF.FilePolarity,Positive*
G04*
G01*
G75*
%ADD13C,0.1270*%
%ADD25R,1.7000X1.7000*%
%ADD26O,0.8000X0.2000*%
%ADD27O,0.2000X0.8000*%
%ADD28R,0.9500X0.8500*%
%ADD29R,0.6000X0.7500*%
%ADD30R,1.4000X1.6000*%
%ADD31R,1.2000X1.2000*%
%ADD32R,0.6000X0.6400*%
%ADD33C,1.6000*%
G04:AMPARAMS|DCode=34|XSize=1.6mm|YSize=1.6mm|CornerRadius=0.4mm|HoleSize=0mm|Usage=FLASHONLY|Rotation=90.000|XOffset=0mm|YOffset=0mm|HoleType=Round|Shape=RoundedRectangle|*
%AMROUNDEDRECTD34*
21,1,1.6000,0.8000,0,0,90.0*
21,1,0.8000,1.6000,0,0,90.0*
1,1,0.8000,0.4000,0.4000*
1,1,0.8000,0.4000,-0.4000*
1,1,0.8000,-0.4000,-0.4000*
1,1,0.8000,-0.4000,0.4000*
%
%ADD34ROUNDEDRECTD34*%
G04:AMPARAMS|DCode=35|XSize=1.6mm|YSize=1.6mm|CornerRadius=0.4mm|HoleSize=0mm|Usage=FLASHONLY|Rotation=0.000|XOffset=0mm|YOffset=0mm|HoleType=Round|Shape=RoundedRectangle|*
%AMROUNDEDRECTD35*
21,1,1.6000,0.8000,0,0,0.0*
21,1,0.8000,1.6000,0,0,0.0*
1,1,0.8000,0.4000,-0.4000*
1,1,0.8000,-0.4000,-0.4000*
1,1,0.8000,-0.4000,0.4000*
1,1,0.8000,0.4000,0.4000*
%
%ADD35ROUNDEDRECTD35*%
%ADD36C,0.6350*%
D13*
X965200Y525780D02*
Y537550D01*
X957635Y545115D02*
X965200Y537550D01*
X960500Y605550D02*
Y639700D01*
X889000Y711200D02*
X960500Y639700D01*
X914044Y660400D02*
X952500Y621944D01*
X889000Y660400D02*
X914044D01*
X892236Y685800D02*
X956500Y621536D01*
X889000Y685800D02*
X892236D01*
X956500Y605550D02*
Y621536D01*
X952500Y605550D02*
Y621944D01*
X948500Y605550D02*
Y608658D01*
X940313Y616845D02*
X948500Y608658D01*
X907155Y616845D02*
X940313D01*
X889000Y635000D02*
X907155Y616845D01*
X943252Y609600D02*
X944500Y608353D01*
Y605550D02*
Y608353D01*
X889000Y609600D02*
X943252D01*
X911289Y606489D02*
X926561D01*
X934500Y598550D02*
X937500D01*
X889000Y584200D02*
X911289Y606489D01*
X926561D02*
X934500Y598550D01*
X898905Y588108D02*
X914746Y603949D01*
X911860Y597471D02*
X915798Y601409D01*
X924993Y603949D02*
X934392Y594550D01*
X915798Y601409D02*
X923162D01*
X914746Y603949D02*
X924993D01*
X923162Y601409D02*
X925176Y599395D01*
X925547D02*
X934392Y590550D01*
X925176Y599395D02*
X925547D01*
X919480Y583080D02*
Y594315D01*
X917308Y567908D02*
X919480Y570080D01*
X934392Y594550D02*
X937500D01*
X896620Y577812D02*
X898905Y580097D01*
X896620Y566420D02*
Y577812D01*
X898905Y580097D02*
Y588108D01*
X901445Y579045D02*
Y583464D01*
X899160Y576760D02*
X901445Y579045D01*
X905292Y567908D02*
X917308D01*
X889000Y558800D02*
X896620Y566420D01*
X901445Y583464D02*
X911860Y593879D01*
Y597471D01*
X899160Y543560D02*
Y576760D01*
X889000Y533400D02*
X899160Y543560D01*
X934392Y590550D02*
X937500D01*
X927100Y577200D02*
Y581660D01*
X919980Y570080D02*
X927100Y577200D01*
Y581660D02*
X931990Y586550D01*
X919480Y570080D02*
X919980D01*
X931990Y586550D02*
X937500D01*
X969865Y598887D02*
Y603921D01*
X969528Y598550D02*
X969865Y598887D01*
Y603921D02*
X983905Y617961D01*
Y635539D01*
X983371Y636074D02*
Y678571D01*
Y636074D02*
X983905Y635539D01*
X967500Y598550D02*
X969528D01*
X983371Y678571D02*
X1016000Y711200D01*
X988451Y615322D02*
X988985Y615857D01*
X986445Y616909D02*
Y636591D01*
X985911Y637126D02*
Y644318D01*
Y637126D02*
X986445Y636591D01*
X988985Y633385D02*
X1016000Y660400D01*
X985911Y609852D02*
Y616374D01*
X988451Y608392D02*
Y615322D01*
X985911Y616374D02*
X986445Y616909D01*
X988985Y615857D02*
Y633385D01*
X970608Y586550D02*
X990991Y606932D01*
X970608Y594550D02*
X985911Y609852D01*
X970608Y590550D02*
X988451Y608392D01*
X967500Y586550D02*
X970608D01*
X967500Y590550D02*
X970608D01*
X967500Y594550D02*
X970608D01*
X990991Y606932D02*
Y609991D01*
X985911Y644318D02*
X1016000Y674408D01*
X990991Y609991D02*
X1016000Y635000D01*
Y674408D02*
Y685800D01*
X985508Y582550D02*
X1012559Y609600D01*
X1016000D01*
X967500Y582550D02*
X985508D01*
X982101Y575550D02*
X990751Y584200D01*
X960500Y575550D02*
X982101D01*
X990751Y584200D02*
X1016000D01*
X944500Y557906D02*
Y562882D01*
X948500Y566882D01*
Y575550D01*
X944500Y557906D02*
X949671Y552735D01*
X968356Y518160D02*
X970896Y520700D01*
X949905Y542069D02*
Y546539D01*
X960992Y515620D02*
X968176D01*
X950015Y526597D02*
Y533781D01*
X952500Y558600D02*
Y575550D01*
Y558600D02*
X957635Y553465D01*
Y545115D02*
Y553465D01*
X949671Y552735D02*
X950893D01*
X954985Y548643D01*
Y545551D02*
X955095Y545441D01*
Y528701D02*
Y545441D01*
Y528701D02*
X963096Y520700D01*
X1005404Y558800D02*
X1016000D01*
X941960Y556854D02*
X948619Y550195D01*
X941960Y556854D02*
Y563934D01*
X944500Y566474D01*
Y575550D01*
X952555Y527649D02*
X962044Y518160D01*
X937500Y557722D02*
X947567Y547655D01*
X948789D01*
X952445Y535611D02*
Y547591D01*
X948619Y550195D02*
X949841D01*
X954985Y545551D02*
Y548643D01*
X963096Y520700D02*
X967304D01*
X1005404Y558800D01*
X950015Y526597D02*
X960992Y515620D01*
X949841Y550195D02*
X952445Y547591D01*
X970896Y520700D02*
X981205D01*
X948789Y547655D02*
X949905Y546539D01*
Y533891D02*
X950015Y533781D01*
X952555Y527649D02*
Y535501D01*
X949905Y533891D02*
Y542069D01*
X968176Y515620D02*
X975796Y508000D01*
X952445Y535611D02*
X952555Y535501D01*
X937500Y557722D02*
Y582550D01*
X962044Y518160D02*
X968356D01*
X981205Y520700D02*
X993905Y533400D01*
X961300Y558800D02*
X963665Y561165D01*
X961300Y558800D02*
Y567642D01*
X963665Y561165D02*
Y564885D01*
X967740Y568960D01*
X975796Y508000D02*
X1016000D01*
X911860Y541020D02*
Y542210D01*
X920750Y551100D01*
X993905Y533400D02*
X1016000D01*
X930000Y685440D02*
Y706750D01*
Y685440D02*
X937260Y678180D01*
X975360Y707109D02*
Y718820D01*
X975000Y706749D02*
X975360Y707109D01*
X920750Y551100D02*
Y551850D01*
Y540350D02*
X941400D01*
X942000Y539750D01*
X956500Y572442D02*
Y575550D01*
Y572442D02*
X961300Y567642D01*
D25*
X952500Y590550D02*
D03*
D26*
X937500Y582550D02*
D03*
Y586550D02*
D03*
Y590550D02*
D03*
Y594550D02*
D03*
Y598550D02*
D03*
X967500D02*
D03*
Y594550D02*
D03*
Y590550D02*
D03*
Y586550D02*
D03*
Y582550D02*
D03*
D27*
X944500Y605550D02*
D03*
X948500D02*
D03*
X952500D02*
D03*
X956500D02*
D03*
X960500D02*
D03*
Y575550D02*
D03*
X956500D02*
D03*
X952500D02*
D03*
X948500D02*
D03*
X944500D02*
D03*
D28*
X919480Y583080D02*
D03*
Y570080D02*
D03*
D29*
X920750Y540350D02*
D03*
Y551850D02*
D03*
D30*
X930000Y706750D02*
D03*
X975000Y626750D02*
D03*
Y706749D02*
D03*
X930000Y626750D02*
D03*
D31*
X963000Y539750D02*
D03*
X942000D02*
D03*
D32*
X961300Y558800D02*
D03*
X952500D02*
D03*
D33*
X1016000Y736600D02*
D03*
X889000D02*
D03*
X1016000Y711200D02*
D03*
Y685800D02*
D03*
Y609600D02*
D03*
Y558800D02*
D03*
Y508000D02*
D03*
Y533400D02*
D03*
Y584200D02*
D03*
Y635000D02*
D03*
Y660400D02*
D03*
X889000Y711200D02*
D03*
Y685800D02*
D03*
Y609600D02*
D03*
Y558800D02*
D03*
Y508000D02*
D03*
Y533400D02*
D03*
Y584200D02*
D03*
Y635000D02*
D03*
Y660400D02*
D03*
X952500Y482600D02*
D03*
X977900D02*
D03*
D34*
X1016000D02*
D03*
X889000D02*
D03*
D35*
X927100D02*
D03*
D36*
X965200Y525780D02*
D03*
X919480Y594315D02*
D03*
X905292Y567908D02*
D03*
X911860Y541020D02*
D03*
X937260Y678180D02*
D03*
X975360Y718820D02*
D03*
X967740Y568960D02*
D03*
M02*
