M48
;Layer_Color=9474304
;FILE_FORMAT=4:4
METRIC,LZ
;TYPE=PLATED
T01F00S00C0.2540
T02F00S00C1.1000
%
T01
X0091186Y0054102
X00905292Y00567908
X0091948Y00594315
X0096774Y0056896
X009652Y0052578
X0093726Y0067818
X0097536Y0071882
T02
X00889Y004826
Y00508
Y005334
Y005588
Y005842
Y006096
Y00635
Y006604
Y006858
Y007112
X00889Y007366
X01016
X01016Y007112
Y006858
Y006604
Y00635
Y006096
Y005842
Y005588
Y005334
Y00508
Y004826
X009779
X009525
X009271
M30
