G04*
G04 #@! TF.GenerationSoftware,Altium Limited,Altium Designer,24.9.1 (31)*
G04*
G04 Layer_Color=32896*
%FSLAX44Y44*%
%MOMM*%
G71*
G04*
G04 #@! TF.SameCoordinates,1131B7E0-D030-4B4C-AB5E-23B9FE94597F*
G04*
G04*
G04 #@! TF.FilePolarity,Positive*
G04*
G01*
G75*
G36*
X79140Y110931D02*
X79300Y110903D01*
X79440Y110847D01*
X79572Y110800D01*
X79675Y110743D01*
X79751Y110696D01*
X79798Y110659D01*
X79816Y110649D01*
X79948Y110527D01*
X80070Y110395D01*
X80164Y110264D01*
X80249Y110132D01*
X80314Y110020D01*
X80361Y109935D01*
X80380Y109897D01*
X80390Y109869D01*
X80399Y109860D01*
Y109850D01*
X80465Y109662D01*
X80521Y109474D01*
X80559Y109296D01*
X80578Y109136D01*
X80596Y108995D01*
Y108939D01*
X80606Y108882D01*
Y108788D01*
X80596Y108563D01*
X80568Y108356D01*
X80531Y108168D01*
X80484Y108008D01*
X80446Y107877D01*
X80408Y107773D01*
X80390Y107736D01*
X80380Y107708D01*
X80371Y107698D01*
Y107689D01*
X80267Y107510D01*
X80155Y107351D01*
X80042Y107219D01*
X79929Y107106D01*
X79826Y107022D01*
X79741Y106956D01*
X79685Y106909D01*
X79675Y106899D01*
X79666D01*
X79487Y106805D01*
X79309Y106730D01*
X79130Y106683D01*
X78961Y106646D01*
X78820Y106627D01*
X78754Y106617D01*
X78707Y106608D01*
X78660D01*
X78632D01*
X78613D01*
X78604D01*
X78379Y106617D01*
X78181Y106655D01*
X77993Y106702D01*
X77843Y106749D01*
X77711Y106805D01*
X77617Y106852D01*
X77580Y106871D01*
X77551Y106890D01*
X77542Y106899D01*
X77533D01*
X77373Y107012D01*
X77232Y107144D01*
X77110Y107275D01*
X77006Y107407D01*
X76931Y107520D01*
X76875Y107604D01*
X76856Y107642D01*
X76837Y107670D01*
X76828Y107680D01*
Y107689D01*
X76743Y107877D01*
X76687Y108065D01*
X76640Y108253D01*
X76612Y108422D01*
X76593Y108572D01*
Y108629D01*
X76583Y108685D01*
Y108788D01*
X76593Y109005D01*
X76612Y109202D01*
X76649Y109371D01*
X76677Y109522D01*
X76715Y109644D01*
X76753Y109738D01*
X76771Y109794D01*
X76781Y109803D01*
Y109813D01*
X75305Y109681D01*
Y107181D01*
X75296Y107116D01*
X75268Y107069D01*
X75249Y107031D01*
X75240Y107022D01*
X75183Y106984D01*
X75127Y106965D01*
X75089Y106956D01*
X75070D01*
X74760D01*
X74694Y106965D01*
X74647Y106984D01*
X74610Y107012D01*
X74601Y107022D01*
X74563Y107078D01*
X74544Y107125D01*
X74535Y107163D01*
Y110208D01*
X74544Y110273D01*
X74563Y110330D01*
X74591Y110367D01*
X74601Y110377D01*
X74657Y110414D01*
X74704Y110433D01*
X74741Y110442D01*
X74760D01*
X77627Y110696D01*
X77683Y110687D01*
X77721Y110668D01*
X77749Y110649D01*
X77758Y110640D01*
X77786Y110593D01*
X77805Y110555D01*
X77815Y110518D01*
Y110067D01*
X77805Y110001D01*
X77796Y109954D01*
X77786Y109916D01*
X77777Y109907D01*
X77739Y109850D01*
X77702Y109785D01*
X77664Y109747D01*
X77655Y109728D01*
X77561Y109587D01*
X77495Y109456D01*
X77476Y109409D01*
X77457Y109371D01*
X77439Y109343D01*
Y109333D01*
X77410Y109249D01*
X77392Y109164D01*
X77364Y108986D01*
X77354Y108911D01*
Y108788D01*
X77364Y108572D01*
X77401Y108384D01*
X77457Y108215D01*
X77514Y108074D01*
X77580Y107961D01*
X77627Y107877D01*
X77664Y107830D01*
X77683Y107811D01*
X77815Y107680D01*
X77965Y107585D01*
X78115Y107520D01*
X78266Y107473D01*
X78397Y107444D01*
X78501Y107435D01*
X78548Y107426D01*
X78576D01*
X78595D01*
X78604D01*
X78811Y107444D01*
X78999Y107482D01*
X79159Y107548D01*
X79290Y107614D01*
X79393Y107689D01*
X79469Y107755D01*
X79506Y107792D01*
X79525Y107811D01*
X79628Y107961D01*
X79713Y108131D01*
X79769Y108290D01*
X79807Y108441D01*
X79826Y108582D01*
X79835Y108685D01*
X79844Y108732D01*
Y108788D01*
X79835Y108967D01*
X79807Y109136D01*
X79769Y109286D01*
X79722Y109409D01*
X79685Y109522D01*
X79647Y109597D01*
X79619Y109644D01*
X79610Y109662D01*
X79516Y109794D01*
X79403Y109897D01*
X79300Y109982D01*
X79196Y110048D01*
X79111Y110095D01*
X79036Y110123D01*
X78989Y110142D01*
X78970Y110151D01*
X78914Y110170D01*
X78877Y110198D01*
X78848Y110226D01*
X78839Y110236D01*
X78801Y110283D01*
X78792Y110320D01*
X78783Y110358D01*
Y110762D01*
X78792Y110818D01*
X78811Y110856D01*
X78830Y110884D01*
X78839Y110894D01*
X78877Y110922D01*
X78924Y110941D01*
X78952Y110950D01*
X78970D01*
X79140Y110931D01*
D02*
G37*
G36*
X71871D02*
X72012Y110903D01*
X72134Y110865D01*
X72247Y110818D01*
X72341Y110771D01*
X72416Y110734D01*
X72454Y110706D01*
X72473Y110696D01*
X72595Y110593D01*
X72708Y110480D01*
X72802Y110358D01*
X72886Y110236D01*
X72952Y110132D01*
X72999Y110038D01*
X73027Y109982D01*
X73037Y109973D01*
Y109963D01*
X73112Y109766D01*
X73159Y109559D01*
X73196Y109352D01*
X73225Y109164D01*
X73243Y108986D01*
Y108920D01*
X73253Y108854D01*
Y108732D01*
X73243Y108516D01*
X73215Y108319D01*
X73187Y108131D01*
X73140Y107971D01*
X73102Y107839D01*
X73074Y107745D01*
X73055Y107708D01*
X73046Y107680D01*
X73037Y107670D01*
Y107661D01*
X72943Y107492D01*
X72839Y107332D01*
X72736Y107200D01*
X72623Y107087D01*
X72529Y107003D01*
X72454Y106937D01*
X72407Y106899D01*
X72388Y106890D01*
X72228Y106796D01*
X72059Y106721D01*
X71890Y106674D01*
X71740Y106636D01*
X71599Y106617D01*
X71495Y106599D01*
X71458D01*
X71430D01*
X71411D01*
X71401D01*
X71251Y106608D01*
X71119Y106617D01*
X70988Y106646D01*
X70866Y106683D01*
X70649Y106768D01*
X70471Y106862D01*
X70386Y106918D01*
X70321Y106965D01*
X70264Y107012D01*
X70217Y107050D01*
X70180Y107087D01*
X70151Y107116D01*
X70142Y107125D01*
X70133Y107134D01*
X70048Y107238D01*
X69973Y107341D01*
X69860Y107576D01*
X69776Y107802D01*
X69710Y108027D01*
X69691Y108131D01*
X69672Y108224D01*
X69663Y108309D01*
X69653Y108384D01*
X69644Y108441D01*
Y108525D01*
X68009Y107012D01*
X67943Y106965D01*
X67896Y106928D01*
X67839Y106899D01*
X67802Y106881D01*
X67764Y106871D01*
X67736Y106862D01*
X67727D01*
X67717D01*
X67407D01*
X67341Y106871D01*
X67295Y106890D01*
X67257Y106918D01*
X67248Y106928D01*
X67210Y106984D01*
X67191Y107031D01*
X67182Y107069D01*
Y110461D01*
X67191Y110527D01*
X67210Y110583D01*
X67238Y110621D01*
X67248Y110630D01*
X67304Y110668D01*
X67351Y110687D01*
X67388Y110696D01*
X67407D01*
X67717D01*
X67783Y110687D01*
X67839Y110659D01*
X67877Y110640D01*
X67887Y110630D01*
X67924Y110574D01*
X67943Y110518D01*
X67952Y110480D01*
Y107999D01*
X69616Y109540D01*
X69672Y109587D01*
X69710Y109615D01*
X69738Y109634D01*
X69747Y109644D01*
X69794Y109662D01*
X69832Y109672D01*
X69860D01*
X69869D01*
X70180D01*
X70245Y109662D01*
X70292Y109634D01*
X70330Y109615D01*
X70339Y109606D01*
X70377Y109550D01*
X70396Y109503D01*
X70405Y109465D01*
Y108732D01*
X70415Y108516D01*
X70443Y108328D01*
X70480Y108168D01*
X70518Y108027D01*
X70565Y107914D01*
X70603Y107839D01*
X70631Y107792D01*
X70640Y107773D01*
X70743Y107651D01*
X70856Y107567D01*
X70988Y107501D01*
X71110Y107463D01*
X71223Y107435D01*
X71317Y107426D01*
X71354Y107416D01*
X71383D01*
X71392D01*
X71401D01*
X71589Y107435D01*
X71749Y107473D01*
X71890Y107538D01*
X72003Y107604D01*
X72097Y107670D01*
X72153Y107736D01*
X72200Y107773D01*
X72210Y107792D01*
X72304Y107933D01*
X72369Y108093D01*
X72426Y108253D01*
X72454Y108403D01*
X72473Y108535D01*
X72482Y108638D01*
X72491Y108676D01*
Y108864D01*
X72482Y108976D01*
X72463Y109192D01*
X72426Y109371D01*
X72388Y109503D01*
X72351Y109615D01*
X72313Y109691D01*
X72294Y109728D01*
X72285Y109747D01*
X72200Y109850D01*
X72106Y109935D01*
X72022Y110001D01*
X71928Y110057D01*
X71852Y110104D01*
X71787Y110132D01*
X71749Y110142D01*
X71730Y110151D01*
X71674Y110170D01*
X71636Y110198D01*
X71608Y110217D01*
X71599Y110226D01*
X71561Y110273D01*
X71552Y110320D01*
X71542Y110349D01*
Y110762D01*
X71552Y110818D01*
X71571Y110856D01*
X71589Y110884D01*
X71599Y110894D01*
X71646Y110922D01*
X71683Y110941D01*
X71721Y110950D01*
X71730D01*
X71871Y110931D01*
D02*
G37*
G36*
X60073Y110941D02*
X60092D01*
X60101D01*
X65477Y109080D01*
X65590Y109023D01*
X65674Y108958D01*
X65731Y108892D01*
X65768Y108807D01*
X65796Y108741D01*
X65806Y108685D01*
X65815Y108647D01*
Y108290D01*
X65806Y108178D01*
X65768Y108084D01*
X65740Y108027D01*
X65731Y108018D01*
Y108008D01*
X65655Y107933D01*
X65571Y107877D01*
X65533Y107858D01*
X65505Y107849D01*
X65486Y107839D01*
X65477D01*
X60101Y105988D01*
X60045Y105969D01*
X60026D01*
X60017D01*
X59960Y105978D01*
X59923Y105997D01*
X59894Y106016D01*
X59885Y106025D01*
X59847Y106072D01*
X59838Y106110D01*
X59829Y106148D01*
Y106476D01*
X59838Y106561D01*
X59866Y106636D01*
X59894Y106693D01*
X59932Y106740D01*
X59979Y106768D01*
X60007Y106787D01*
X60035Y106805D01*
X60045D01*
X64960Y108460D01*
X60045Y110113D01*
X59970Y110151D01*
X59923Y110198D01*
X59885Y110254D01*
X59857Y110311D01*
X59838Y110367D01*
X59829Y110405D01*
Y110762D01*
X59838Y110818D01*
X59857Y110856D01*
X59876Y110884D01*
X59885Y110894D01*
X59932Y110922D01*
X59970Y110941D01*
X60007Y110950D01*
X60017D01*
X60073Y110941D01*
D02*
G37*
G36*
X65655Y104935D02*
X65702Y104907D01*
X65740Y104888D01*
X65749Y104879D01*
X65787Y104823D01*
X65806Y104775D01*
X65815Y104738D01*
Y104362D01*
X65806Y104296D01*
X65778Y104249D01*
X65759Y104212D01*
X65749Y104202D01*
X65693Y104165D01*
X65646Y104146D01*
X65609Y104136D01*
X65590D01*
X60054D01*
X59988Y104146D01*
X59942Y104165D01*
X59904Y104193D01*
X59894Y104202D01*
X59857Y104259D01*
X59838Y104306D01*
X59829Y104343D01*
Y104719D01*
X59838Y104785D01*
X59857Y104832D01*
X59885Y104869D01*
X59894Y104879D01*
X59951Y104916D01*
X59998Y104935D01*
X60035Y104945D01*
X60054D01*
X65590D01*
X65655Y104935D01*
D02*
G37*
G36*
X74779Y105950D02*
X74798D01*
X74807D01*
X80183Y104089D01*
X80296Y104033D01*
X80380Y103967D01*
X80437Y103902D01*
X80474Y103817D01*
X80502Y103751D01*
X80512Y103695D01*
X80521Y103657D01*
Y103300D01*
X80512Y103187D01*
X80474Y103093D01*
X80446Y103037D01*
X80437Y103027D01*
Y103018D01*
X80361Y102943D01*
X80277Y102886D01*
X80239Y102868D01*
X80211Y102858D01*
X80192Y102849D01*
X80183D01*
X74807Y100997D01*
X74751Y100979D01*
X74732D01*
X74723D01*
X74666Y100988D01*
X74629Y101007D01*
X74601Y101026D01*
X74591Y101035D01*
X74553Y101082D01*
X74544Y101120D01*
X74535Y101157D01*
Y101486D01*
X74544Y101571D01*
X74572Y101646D01*
X74601Y101702D01*
X74638Y101749D01*
X74685Y101777D01*
X74713Y101796D01*
X74741Y101815D01*
X74751D01*
X79666Y103469D01*
X74751Y105123D01*
X74676Y105161D01*
X74629Y105208D01*
X74591Y105264D01*
X74563Y105321D01*
X74544Y105377D01*
X74535Y105414D01*
Y105772D01*
X74544Y105828D01*
X74563Y105866D01*
X74582Y105894D01*
X74591Y105903D01*
X74638Y105931D01*
X74676Y105950D01*
X74713Y105960D01*
X74723D01*
X74779Y105950D01*
D02*
G37*
G36*
X67426Y105922D02*
X67445D01*
X67454D01*
X72830Y104061D01*
X72943Y104005D01*
X73027Y103939D01*
X73084Y103873D01*
X73121Y103789D01*
X73149Y103723D01*
X73159Y103666D01*
X73168Y103629D01*
Y103272D01*
X73159Y103159D01*
X73121Y103065D01*
X73093Y103009D01*
X73084Y102999D01*
Y102990D01*
X73008Y102915D01*
X72924Y102858D01*
X72886Y102839D01*
X72858Y102830D01*
X72839Y102821D01*
X72830D01*
X67454Y100969D01*
X67398Y100950D01*
X67379D01*
X67370D01*
X67313Y100960D01*
X67276Y100979D01*
X67248Y100997D01*
X67238Y101007D01*
X67200Y101054D01*
X67191Y101091D01*
X67182Y101129D01*
Y101458D01*
X67191Y101543D01*
X67219Y101618D01*
X67248Y101674D01*
X67285Y101721D01*
X67332Y101749D01*
X67360Y101768D01*
X67388Y101787D01*
X67398D01*
X72313Y103441D01*
X67398Y105095D01*
X67323Y105133D01*
X67276Y105180D01*
X67238Y105236D01*
X67210Y105292D01*
X67191Y105349D01*
X67182Y105386D01*
Y105744D01*
X67191Y105800D01*
X67210Y105837D01*
X67229Y105866D01*
X67238Y105875D01*
X67285Y105903D01*
X67323Y105922D01*
X67360Y105931D01*
X67370D01*
X67426Y105922D01*
D02*
G37*
G36*
X80361Y100105D02*
X80408Y100077D01*
X80446Y100058D01*
X80455Y100048D01*
X80493Y99992D01*
X80512Y99936D01*
X80521Y99898D01*
Y99306D01*
X80512Y99240D01*
X80484Y99193D01*
X80465Y99156D01*
X80455Y99146D01*
X80399Y99099D01*
X80352Y99080D01*
X80314Y99071D01*
X80296D01*
X79722D01*
X79657Y99080D01*
X79610Y99108D01*
X79572Y99137D01*
X79563Y99146D01*
X79516Y99202D01*
X79497Y99249D01*
X79487Y99287D01*
Y99879D01*
X79497Y99945D01*
X79525Y100001D01*
X79553Y100039D01*
X79563Y100048D01*
X79619Y100086D01*
X79666Y100105D01*
X79704Y100114D01*
X79722D01*
X80296D01*
X80361Y100105D01*
D02*
G37*
G36*
X77364D02*
X77420Y100077D01*
X77457Y100058D01*
X77467Y100048D01*
X77504Y99992D01*
X77523Y99936D01*
X77533Y99898D01*
Y99306D01*
X77523Y99240D01*
X77495Y99193D01*
X77476Y99156D01*
X77467Y99146D01*
X77410Y99099D01*
X77354Y99080D01*
X77316Y99071D01*
X77298D01*
X76724D01*
X76659Y99080D01*
X76612Y99108D01*
X76574Y99137D01*
X76565Y99146D01*
X76518Y99202D01*
X76499Y99249D01*
X76490Y99287D01*
Y99879D01*
X76499Y99945D01*
X76527Y100001D01*
X76555Y100039D01*
X76565Y100048D01*
X76621Y100086D01*
X76668Y100105D01*
X76706Y100114D01*
X76724D01*
X77298D01*
X77364Y100105D01*
D02*
G37*
G36*
X65655Y102652D02*
X65702Y102623D01*
X65740Y102605D01*
X65749Y102595D01*
X65787Y102539D01*
X65806Y102492D01*
X65815Y102454D01*
Y102078D01*
X65806Y102013D01*
X65778Y101966D01*
X65759Y101928D01*
X65749Y101918D01*
X65693Y101881D01*
X65646Y101862D01*
X65609Y101853D01*
X65590D01*
X61379D01*
X65561Y99071D01*
X65646Y99015D01*
X65702Y98958D01*
X65740Y98920D01*
X65749Y98911D01*
X65787Y98845D01*
X65806Y98789D01*
X65815Y98742D01*
Y98422D01*
X65806Y98357D01*
X65778Y98310D01*
X65759Y98272D01*
X65749Y98263D01*
X65693Y98225D01*
X65646Y98206D01*
X65609Y98197D01*
X65590D01*
X60054D01*
X59988Y98206D01*
X59942Y98225D01*
X59904Y98253D01*
X59894Y98263D01*
X59857Y98319D01*
X59838Y98366D01*
X59829Y98404D01*
Y98780D01*
X59838Y98845D01*
X59857Y98892D01*
X59885Y98930D01*
X59894Y98939D01*
X59951Y98977D01*
X59998Y98996D01*
X60035Y99005D01*
X60054D01*
X64274D01*
X60082Y101787D01*
X59998Y101843D01*
X59942Y101890D01*
X59904Y101928D01*
X59894Y101947D01*
X59857Y102003D01*
X59838Y102069D01*
X59829Y102116D01*
Y102435D01*
X59838Y102501D01*
X59857Y102548D01*
X59885Y102586D01*
X59894Y102595D01*
X59951Y102633D01*
X59998Y102652D01*
X60035Y102661D01*
X60054D01*
X65590D01*
X65655Y102652D01*
D02*
G37*
G36*
X71871Y100293D02*
X72012Y100264D01*
X72134Y100227D01*
X72247Y100180D01*
X72341Y100133D01*
X72416Y100095D01*
X72454Y100067D01*
X72473Y100058D01*
X72595Y99954D01*
X72708Y99841D01*
X72802Y99719D01*
X72886Y99597D01*
X72952Y99494D01*
X72999Y99400D01*
X73027Y99343D01*
X73037Y99334D01*
Y99325D01*
X73112Y99127D01*
X73159Y98920D01*
X73196Y98714D01*
X73225Y98526D01*
X73243Y98347D01*
Y98281D01*
X73253Y98216D01*
Y98094D01*
X73243Y97877D01*
X73215Y97680D01*
X73187Y97492D01*
X73140Y97332D01*
X73102Y97201D01*
X73074Y97107D01*
X73055Y97069D01*
X73046Y97041D01*
X73037Y97031D01*
Y97022D01*
X72943Y96853D01*
X72839Y96693D01*
X72736Y96562D01*
X72623Y96449D01*
X72529Y96364D01*
X72454Y96299D01*
X72407Y96261D01*
X72388Y96251D01*
X72228Y96158D01*
X72059Y96082D01*
X71890Y96035D01*
X71740Y95998D01*
X71599Y95979D01*
X71495Y95960D01*
X71458D01*
X71430D01*
X71411D01*
X71401D01*
X71251Y95970D01*
X71119Y95979D01*
X70988Y96007D01*
X70866Y96045D01*
X70649Y96129D01*
X70471Y96223D01*
X70386Y96280D01*
X70321Y96327D01*
X70264Y96374D01*
X70217Y96411D01*
X70180Y96449D01*
X70151Y96477D01*
X70142Y96486D01*
X70133Y96496D01*
X70048Y96599D01*
X69973Y96703D01*
X69860Y96938D01*
X69776Y97163D01*
X69710Y97389D01*
X69691Y97492D01*
X69672Y97586D01*
X69663Y97671D01*
X69653Y97746D01*
X69644Y97802D01*
Y97887D01*
X68009Y96374D01*
X67943Y96327D01*
X67896Y96289D01*
X67839Y96261D01*
X67802Y96242D01*
X67764Y96233D01*
X67736Y96223D01*
X67727D01*
X67717D01*
X67407D01*
X67341Y96233D01*
X67295Y96251D01*
X67257Y96280D01*
X67248Y96289D01*
X67210Y96346D01*
X67191Y96392D01*
X67182Y96430D01*
Y99823D01*
X67191Y99888D01*
X67210Y99945D01*
X67238Y99983D01*
X67248Y99992D01*
X67304Y100029D01*
X67351Y100048D01*
X67388Y100058D01*
X67407D01*
X67717D01*
X67783Y100048D01*
X67839Y100020D01*
X67877Y100001D01*
X67887Y99992D01*
X67924Y99936D01*
X67943Y99879D01*
X67952Y99841D01*
Y97360D01*
X69616Y98902D01*
X69672Y98949D01*
X69710Y98977D01*
X69738Y98996D01*
X69747Y99005D01*
X69794Y99024D01*
X69832Y99033D01*
X69860D01*
X69869D01*
X70180D01*
X70245Y99024D01*
X70292Y98996D01*
X70330Y98977D01*
X70339Y98968D01*
X70377Y98911D01*
X70396Y98864D01*
X70405Y98827D01*
Y98094D01*
X70415Y97877D01*
X70443Y97689D01*
X70480Y97530D01*
X70518Y97389D01*
X70565Y97276D01*
X70603Y97201D01*
X70631Y97154D01*
X70640Y97135D01*
X70743Y97013D01*
X70856Y96928D01*
X70988Y96862D01*
X71110Y96825D01*
X71223Y96797D01*
X71317Y96787D01*
X71354Y96778D01*
X71383D01*
X71392D01*
X71401D01*
X71589Y96797D01*
X71749Y96834D01*
X71890Y96900D01*
X72003Y96966D01*
X72097Y97031D01*
X72153Y97097D01*
X72200Y97135D01*
X72210Y97154D01*
X72304Y97295D01*
X72369Y97454D01*
X72426Y97614D01*
X72454Y97765D01*
X72473Y97896D01*
X72482Y97999D01*
X72491Y98037D01*
Y98225D01*
X72482Y98338D01*
X72463Y98554D01*
X72426Y98733D01*
X72388Y98864D01*
X72351Y98977D01*
X72313Y99052D01*
X72294Y99090D01*
X72285Y99108D01*
X72200Y99212D01*
X72106Y99296D01*
X72022Y99362D01*
X71928Y99419D01*
X71852Y99466D01*
X71787Y99494D01*
X71749Y99503D01*
X71730Y99513D01*
X71674Y99531D01*
X71636Y99560D01*
X71608Y99578D01*
X71599Y99588D01*
X71561Y99635D01*
X71552Y99682D01*
X71542Y99710D01*
Y100124D01*
X71552Y100180D01*
X71571Y100218D01*
X71589Y100246D01*
X71599Y100255D01*
X71646Y100283D01*
X71683Y100302D01*
X71721Y100311D01*
X71730D01*
X71871Y100293D01*
D02*
G37*
G36*
X73008Y94983D02*
X73055Y94955D01*
X73093Y94936D01*
X73102Y94926D01*
X73140Y94870D01*
X73159Y94814D01*
X73168Y94776D01*
Y94184D01*
X73159Y94118D01*
X73131Y94071D01*
X73112Y94034D01*
X73102Y94024D01*
X73046Y93977D01*
X72999Y93958D01*
X72961Y93949D01*
X72943D01*
X72369D01*
X72304Y93958D01*
X72257Y93987D01*
X72219Y94015D01*
X72210Y94024D01*
X72163Y94081D01*
X72144Y94128D01*
X72134Y94165D01*
Y94757D01*
X72144Y94823D01*
X72172Y94879D01*
X72200Y94917D01*
X72210Y94926D01*
X72266Y94964D01*
X72313Y94983D01*
X72351Y94992D01*
X72369D01*
X72943D01*
X73008Y94983D01*
D02*
G37*
G36*
X70010D02*
X70067Y94955D01*
X70104Y94936D01*
X70114Y94926D01*
X70151Y94870D01*
X70170Y94814D01*
X70180Y94776D01*
Y94184D01*
X70170Y94118D01*
X70142Y94071D01*
X70123Y94034D01*
X70114Y94024D01*
X70058Y93977D01*
X70001Y93958D01*
X69963Y93949D01*
X69945D01*
X69371D01*
X69306Y93958D01*
X69259Y93987D01*
X69221Y94015D01*
X69212Y94024D01*
X69165Y94081D01*
X69146Y94128D01*
X69137Y94165D01*
Y94757D01*
X69146Y94823D01*
X69174Y94879D01*
X69202Y94917D01*
X69212Y94926D01*
X69268Y94964D01*
X69315Y94983D01*
X69353Y94992D01*
X69371D01*
X69945D01*
X70010Y94983D01*
D02*
G37*
G36*
X63080Y95058D02*
X63146Y95039D01*
X63184Y95020D01*
X63203Y95011D01*
X63259Y94955D01*
X63306Y94889D01*
X63344Y94832D01*
X63362Y94823D01*
Y94814D01*
X65270Y91994D01*
X65289Y91957D01*
X65298Y91928D01*
Y91900D01*
X65289Y91844D01*
X65270Y91806D01*
X65261Y91778D01*
X65251Y91769D01*
X65204Y91731D01*
X65167Y91722D01*
X65129Y91712D01*
X65120D01*
X64734D01*
X64659Y91722D01*
X64594Y91759D01*
X64528Y91797D01*
X64471Y91853D01*
X64424Y91900D01*
X64387Y91947D01*
X64368Y91985D01*
X64359Y91994D01*
X62827Y94250D01*
X61295Y91994D01*
X61220Y91900D01*
X61154Y91834D01*
X61088Y91778D01*
X61032Y91750D01*
X60985Y91731D01*
X60947Y91712D01*
X60919D01*
X60910D01*
X60524D01*
X60477Y91722D01*
X60430Y91741D01*
X60411Y91759D01*
X60402Y91769D01*
X60364Y91806D01*
X60355Y91853D01*
X60346Y91881D01*
Y91938D01*
X60355Y91966D01*
X60364Y91985D01*
X60374Y91994D01*
X62282Y94814D01*
X62347Y94898D01*
X62394Y94964D01*
X62432Y95002D01*
X62451Y95011D01*
X62516Y95039D01*
X62582Y95058D01*
X62629Y95067D01*
X62639D01*
X62648D01*
X63005D01*
X63080Y95058D01*
D02*
G37*
G36*
X76245Y92032D02*
X76283Y92013D01*
X76320Y92004D01*
X76330Y91994D01*
X76593Y91787D01*
X76640Y91731D01*
X76668Y91675D01*
X76677Y91628D01*
Y91609D01*
X76668Y91552D01*
X76649Y91505D01*
X76640Y91477D01*
X76630Y91468D01*
X75578Y90077D01*
X80296D01*
X80361Y90068D01*
X80408Y90039D01*
X80446Y90021D01*
X80455Y90011D01*
X80493Y89955D01*
X80512Y89898D01*
X80521Y89861D01*
Y89494D01*
X80512Y89429D01*
X80484Y89382D01*
X80465Y89344D01*
X80455Y89335D01*
X80399Y89288D01*
X80352Y89269D01*
X80314Y89259D01*
X80296D01*
X74760D01*
X74694Y89269D01*
X74647Y89297D01*
X74610Y89325D01*
X74601Y89335D01*
X74563Y89391D01*
X74544Y89438D01*
X74535Y89475D01*
Y89842D01*
X74544Y89964D01*
X74563Y90049D01*
X74591Y90096D01*
X74601Y90115D01*
X76001Y91947D01*
X76057Y92004D01*
X76123Y92032D01*
X76170Y92041D01*
X76179D01*
X76189D01*
X76245Y92032D01*
D02*
G37*
G36*
X68892Y91083D02*
X68930Y91064D01*
X68967Y91054D01*
X68977Y91045D01*
X69240Y90838D01*
X69287Y90782D01*
X69315Y90725D01*
X69324Y90679D01*
Y90660D01*
X69315Y90603D01*
X69296Y90556D01*
X69287Y90528D01*
X69277Y90519D01*
X68225Y89128D01*
X72943D01*
X73008Y89118D01*
X73055Y89090D01*
X73093Y89071D01*
X73102Y89062D01*
X73140Y89006D01*
X73159Y88949D01*
X73168Y88912D01*
Y88545D01*
X73159Y88479D01*
X73131Y88432D01*
X73112Y88395D01*
X73102Y88385D01*
X73046Y88338D01*
X72999Y88320D01*
X72961Y88310D01*
X72943D01*
X67407D01*
X67341Y88320D01*
X67295Y88348D01*
X67257Y88376D01*
X67248Y88385D01*
X67210Y88442D01*
X67191Y88489D01*
X67182Y88526D01*
Y88893D01*
X67191Y89015D01*
X67210Y89100D01*
X67238Y89147D01*
X67248Y89165D01*
X68648Y90998D01*
X68704Y91054D01*
X68770Y91083D01*
X68817Y91092D01*
X68826D01*
X68836D01*
X68892Y91083D01*
D02*
G37*
G36*
X61539Y88883D02*
X61577Y88865D01*
X61614Y88855D01*
X61624Y88846D01*
X61887Y88639D01*
X61934Y88583D01*
X61962Y88526D01*
X61971Y88479D01*
Y88461D01*
X61962Y88404D01*
X61943Y88357D01*
X61934Y88329D01*
X61924Y88320D01*
X60872Y86929D01*
X65590D01*
X65655Y86919D01*
X65702Y86891D01*
X65740Y86872D01*
X65749Y86863D01*
X65787Y86806D01*
X65806Y86750D01*
X65815Y86713D01*
Y86346D01*
X65806Y86280D01*
X65778Y86233D01*
X65759Y86196D01*
X65749Y86186D01*
X65693Y86139D01*
X65646Y86121D01*
X65609Y86111D01*
X65590D01*
X60054D01*
X59988Y86121D01*
X59942Y86149D01*
X59904Y86177D01*
X59894Y86186D01*
X59857Y86243D01*
X59838Y86290D01*
X59829Y86327D01*
Y86694D01*
X59838Y86816D01*
X59857Y86901D01*
X59885Y86947D01*
X59894Y86966D01*
X61295Y88799D01*
X61351Y88855D01*
X61417Y88883D01*
X61464Y88893D01*
X61473D01*
X61483D01*
X61539Y88883D01*
D02*
G37*
G36*
X79140Y88235D02*
X79300Y88207D01*
X79440Y88150D01*
X79572Y88103D01*
X79675Y88047D01*
X79751Y88000D01*
X79798Y87963D01*
X79816Y87953D01*
X79948Y87831D01*
X80070Y87699D01*
X80164Y87568D01*
X80249Y87436D01*
X80314Y87323D01*
X80361Y87239D01*
X80380Y87201D01*
X80390Y87173D01*
X80399Y87164D01*
Y87154D01*
X80465Y86966D01*
X80521Y86778D01*
X80559Y86600D01*
X80578Y86440D01*
X80596Y86299D01*
Y86243D01*
X80606Y86186D01*
Y86092D01*
X80596Y85867D01*
X80568Y85660D01*
X80531Y85472D01*
X80484Y85312D01*
X80446Y85181D01*
X80408Y85077D01*
X80390Y85040D01*
X80380Y85012D01*
X80371Y85002D01*
Y84993D01*
X80267Y84814D01*
X80155Y84654D01*
X80042Y84523D01*
X79929Y84410D01*
X79826Y84325D01*
X79741Y84260D01*
X79685Y84213D01*
X79675Y84203D01*
X79666D01*
X79487Y84109D01*
X79309Y84034D01*
X79130Y83987D01*
X78961Y83949D01*
X78820Y83931D01*
X78754Y83921D01*
X78707Y83912D01*
X78660D01*
X78632D01*
X78613D01*
X78604D01*
X78379Y83921D01*
X78181Y83959D01*
X77993Y84006D01*
X77843Y84053D01*
X77711Y84109D01*
X77617Y84156D01*
X77580Y84175D01*
X77551Y84194D01*
X77542Y84203D01*
X77533D01*
X77373Y84316D01*
X77232Y84448D01*
X77110Y84579D01*
X77006Y84711D01*
X76931Y84824D01*
X76875Y84908D01*
X76856Y84946D01*
X76837Y84974D01*
X76828Y84983D01*
Y84993D01*
X76743Y85181D01*
X76687Y85369D01*
X76640Y85557D01*
X76612Y85726D01*
X76593Y85876D01*
Y85933D01*
X76583Y85989D01*
Y86092D01*
X76593Y86308D01*
X76612Y86506D01*
X76649Y86675D01*
X76677Y86825D01*
X76715Y86947D01*
X76753Y87042D01*
X76771Y87098D01*
X76781Y87107D01*
Y87117D01*
X75305Y86985D01*
Y84485D01*
X75296Y84419D01*
X75268Y84372D01*
X75249Y84335D01*
X75240Y84325D01*
X75183Y84288D01*
X75127Y84269D01*
X75089Y84260D01*
X75070D01*
X74760D01*
X74694Y84269D01*
X74647Y84288D01*
X74610Y84316D01*
X74601Y84325D01*
X74563Y84382D01*
X74544Y84429D01*
X74535Y84466D01*
Y87511D01*
X74544Y87577D01*
X74563Y87633D01*
X74591Y87671D01*
X74601Y87681D01*
X74657Y87718D01*
X74704Y87737D01*
X74741Y87746D01*
X74760D01*
X77627Y88000D01*
X77683Y87991D01*
X77721Y87972D01*
X77749Y87953D01*
X77758Y87944D01*
X77786Y87897D01*
X77805Y87859D01*
X77815Y87822D01*
Y87370D01*
X77805Y87305D01*
X77796Y87258D01*
X77786Y87220D01*
X77777Y87211D01*
X77739Y87154D01*
X77702Y87088D01*
X77664Y87051D01*
X77655Y87032D01*
X77561Y86891D01*
X77495Y86760D01*
X77476Y86713D01*
X77457Y86675D01*
X77439Y86647D01*
Y86637D01*
X77410Y86553D01*
X77392Y86468D01*
X77364Y86290D01*
X77354Y86214D01*
Y86092D01*
X77364Y85876D01*
X77401Y85688D01*
X77457Y85519D01*
X77514Y85378D01*
X77580Y85265D01*
X77627Y85181D01*
X77664Y85134D01*
X77683Y85115D01*
X77815Y84983D01*
X77965Y84889D01*
X78115Y84824D01*
X78266Y84776D01*
X78397Y84748D01*
X78501Y84739D01*
X78548Y84729D01*
X78576D01*
X78595D01*
X78604D01*
X78811Y84748D01*
X78999Y84786D01*
X79159Y84852D01*
X79290Y84917D01*
X79393Y84993D01*
X79469Y85058D01*
X79506Y85096D01*
X79525Y85115D01*
X79628Y85265D01*
X79713Y85434D01*
X79769Y85594D01*
X79807Y85744D01*
X79826Y85885D01*
X79835Y85989D01*
X79844Y86036D01*
Y86092D01*
X79835Y86271D01*
X79807Y86440D01*
X79769Y86590D01*
X79722Y86713D01*
X79685Y86825D01*
X79647Y86901D01*
X79619Y86947D01*
X79610Y86966D01*
X79516Y87098D01*
X79403Y87201D01*
X79300Y87286D01*
X79196Y87352D01*
X79111Y87399D01*
X79036Y87427D01*
X78989Y87446D01*
X78970Y87455D01*
X78914Y87474D01*
X78877Y87502D01*
X78848Y87530D01*
X78839Y87540D01*
X78801Y87586D01*
X78792Y87624D01*
X78783Y87662D01*
Y88066D01*
X78792Y88122D01*
X78811Y88160D01*
X78830Y88188D01*
X78839Y88197D01*
X78877Y88226D01*
X78924Y88244D01*
X78952Y88254D01*
X78970D01*
X79140Y88235D01*
D02*
G37*
G36*
X71787Y87286D02*
X71947Y87258D01*
X72087Y87201D01*
X72219Y87154D01*
X72322Y87098D01*
X72398Y87051D01*
X72445Y87013D01*
X72463Y87004D01*
X72595Y86882D01*
X72717Y86750D01*
X72811Y86618D01*
X72896Y86487D01*
X72961Y86374D01*
X73008Y86290D01*
X73027Y86252D01*
X73037Y86224D01*
X73046Y86214D01*
Y86205D01*
X73112Y86017D01*
X73168Y85829D01*
X73206Y85651D01*
X73225Y85491D01*
X73243Y85350D01*
Y85293D01*
X73253Y85237D01*
Y85143D01*
X73243Y84917D01*
X73215Y84711D01*
X73178Y84523D01*
X73131Y84363D01*
X73093Y84232D01*
X73055Y84128D01*
X73037Y84090D01*
X73027Y84062D01*
X73018Y84053D01*
Y84044D01*
X72915Y83865D01*
X72802Y83705D01*
X72689Y83574D01*
X72576Y83461D01*
X72473Y83376D01*
X72388Y83310D01*
X72332Y83264D01*
X72322Y83254D01*
X72313D01*
X72134Y83160D01*
X71956Y83085D01*
X71777Y83038D01*
X71608Y83000D01*
X71467Y82982D01*
X71401Y82972D01*
X71354Y82963D01*
X71307D01*
X71279D01*
X71260D01*
X71251D01*
X71026Y82972D01*
X70828Y83010D01*
X70640Y83057D01*
X70490Y83104D01*
X70358Y83160D01*
X70264Y83207D01*
X70227Y83226D01*
X70198Y83245D01*
X70189Y83254D01*
X70180D01*
X70020Y83367D01*
X69879Y83498D01*
X69757Y83630D01*
X69653Y83762D01*
X69578Y83874D01*
X69522Y83959D01*
X69503Y83996D01*
X69484Y84025D01*
X69475Y84034D01*
Y84044D01*
X69390Y84232D01*
X69334Y84419D01*
X69287Y84607D01*
X69259Y84776D01*
X69240Y84927D01*
Y84983D01*
X69230Y85040D01*
Y85143D01*
X69240Y85359D01*
X69259Y85557D01*
X69296Y85726D01*
X69324Y85876D01*
X69362Y85998D01*
X69400Y86092D01*
X69418Y86149D01*
X69428Y86158D01*
Y86167D01*
X67952Y86036D01*
Y83536D01*
X67943Y83470D01*
X67915Y83423D01*
X67896Y83386D01*
X67887Y83376D01*
X67830Y83339D01*
X67774Y83320D01*
X67736Y83310D01*
X67717D01*
X67407D01*
X67341Y83320D01*
X67295Y83339D01*
X67257Y83367D01*
X67248Y83376D01*
X67210Y83433D01*
X67191Y83480D01*
X67182Y83517D01*
Y86562D01*
X67191Y86628D01*
X67210Y86684D01*
X67238Y86722D01*
X67248Y86731D01*
X67304Y86769D01*
X67351Y86788D01*
X67388Y86797D01*
X67407D01*
X70274Y87051D01*
X70330Y87042D01*
X70368Y87023D01*
X70396Y87004D01*
X70405Y86994D01*
X70433Y86947D01*
X70452Y86910D01*
X70462Y86872D01*
Y86421D01*
X70452Y86355D01*
X70443Y86308D01*
X70433Y86271D01*
X70424Y86261D01*
X70386Y86205D01*
X70349Y86139D01*
X70311Y86102D01*
X70302Y86083D01*
X70208Y85942D01*
X70142Y85810D01*
X70123Y85763D01*
X70104Y85726D01*
X70086Y85697D01*
Y85688D01*
X70058Y85604D01*
X70039Y85519D01*
X70010Y85340D01*
X70001Y85265D01*
Y85143D01*
X70010Y84927D01*
X70048Y84739D01*
X70104Y84570D01*
X70161Y84429D01*
X70227Y84316D01*
X70274Y84232D01*
X70311Y84185D01*
X70330Y84166D01*
X70462Y84034D01*
X70612Y83940D01*
X70762Y83874D01*
X70913Y83827D01*
X71044Y83799D01*
X71148Y83790D01*
X71195Y83780D01*
X71223D01*
X71242D01*
X71251D01*
X71458Y83799D01*
X71646Y83837D01*
X71806Y83903D01*
X71937Y83968D01*
X72040Y84044D01*
X72116Y84109D01*
X72153Y84147D01*
X72172Y84166D01*
X72275Y84316D01*
X72360Y84485D01*
X72416Y84645D01*
X72454Y84795D01*
X72473Y84936D01*
X72482Y85040D01*
X72491Y85087D01*
Y85143D01*
X72482Y85322D01*
X72454Y85491D01*
X72416Y85641D01*
X72369Y85763D01*
X72332Y85876D01*
X72294Y85951D01*
X72266Y85998D01*
X72257Y86017D01*
X72163Y86149D01*
X72050Y86252D01*
X71947Y86337D01*
X71843Y86402D01*
X71758Y86449D01*
X71683Y86478D01*
X71636Y86496D01*
X71617Y86506D01*
X71561Y86525D01*
X71524Y86553D01*
X71495Y86581D01*
X71486Y86590D01*
X71448Y86637D01*
X71439Y86675D01*
X71430Y86713D01*
Y87117D01*
X71439Y87173D01*
X71458Y87211D01*
X71477Y87239D01*
X71486Y87248D01*
X71524Y87276D01*
X71571Y87295D01*
X71599Y87305D01*
X71617D01*
X71787Y87286D01*
D02*
G37*
G36*
X64048Y85077D02*
X64246Y85040D01*
X64424Y84993D01*
X64584Y84946D01*
X64716Y84889D01*
X64810Y84852D01*
X64847Y84833D01*
X64875Y84814D01*
X64885Y84805D01*
X64894D01*
X65063Y84683D01*
X65204Y84560D01*
X65336Y84429D01*
X65439Y84297D01*
X65524Y84185D01*
X65590Y84100D01*
X65609Y84062D01*
X65627Y84034D01*
X65637Y84025D01*
Y84015D01*
X65721Y83818D01*
X65787Y83621D01*
X65834Y83433D01*
X65862Y83254D01*
X65881Y83104D01*
X65890Y83038D01*
X65900Y82982D01*
Y82878D01*
X65890Y82643D01*
X65862Y82427D01*
X65815Y82239D01*
X65768Y82070D01*
X65721Y81929D01*
X65693Y81873D01*
X65674Y81826D01*
X65665Y81788D01*
X65646Y81760D01*
X65637Y81750D01*
Y81741D01*
X65524Y81562D01*
X65402Y81403D01*
X65279Y81271D01*
X65167Y81158D01*
X65054Y81064D01*
X64969Y80998D01*
X64913Y80961D01*
X64904Y80952D01*
X64894D01*
X64716Y80858D01*
X64528Y80782D01*
X64349Y80735D01*
X64189Y80698D01*
X64048Y80679D01*
X63992Y80670D01*
X63936Y80660D01*
X63898D01*
X63870D01*
X63851D01*
X63842D01*
X63635Y80670D01*
X63438Y80707D01*
X63259Y80754D01*
X63109Y80801D01*
X62977Y80858D01*
X62883Y80905D01*
X62845Y80923D01*
X62817Y80942D01*
X62808Y80952D01*
X62799D01*
X62629Y81064D01*
X62479Y81196D01*
X62357Y81327D01*
X62244Y81450D01*
X62169Y81562D01*
X62103Y81656D01*
X62084Y81694D01*
X62065Y81722D01*
X62056Y81732D01*
Y81741D01*
X61962Y81929D01*
X61896Y82126D01*
X61849Y82324D01*
X61821Y82493D01*
X61793Y82653D01*
Y82718D01*
X61783Y82775D01*
Y82878D01*
X61793Y83000D01*
X61802Y83094D01*
X61812Y83132D01*
Y83160D01*
X61821Y83169D01*
Y83179D01*
X60129Y82023D01*
X60082Y82004D01*
X60045Y81985D01*
X60026D01*
X60017D01*
X59960Y81995D01*
X59923Y82004D01*
X59894Y82023D01*
X59885Y82032D01*
X59847Y82070D01*
X59838Y82107D01*
X59829Y82145D01*
Y82690D01*
X59838Y82728D01*
X59847Y82756D01*
X59857Y82765D01*
X59876Y82803D01*
X59904Y82831D01*
X59923Y82850D01*
X59932Y82859D01*
X59960Y82878D01*
X59979Y82897D01*
X59998Y82906D01*
X62291Y84466D01*
X62451Y84579D01*
X62601Y84673D01*
X62733Y84748D01*
X62845Y84814D01*
X62939Y84871D01*
X63015Y84908D01*
X63052Y84927D01*
X63071Y84936D01*
X63203Y84983D01*
X63334Y85021D01*
X63456Y85049D01*
X63579Y85068D01*
X63682Y85077D01*
X63766Y85087D01*
X63823D01*
X63832D01*
X63842D01*
X64048Y85077D01*
D02*
G37*
G36*
X78256Y83010D02*
X78454Y83000D01*
X78632Y82982D01*
X78811Y82953D01*
X78970Y82916D01*
X79121Y82869D01*
X79262Y82822D01*
X79393Y82775D01*
X79506Y82718D01*
X79610Y82671D01*
X79704Y82615D01*
X79788Y82568D01*
X79844Y82530D01*
X79901Y82493D01*
X79939Y82465D01*
X79957Y82455D01*
X79967Y82446D01*
X80079Y82333D01*
X80174Y82220D01*
X80258Y82098D01*
X80333Y81966D01*
X80399Y81826D01*
X80446Y81694D01*
X80521Y81431D01*
X80549Y81309D01*
X80568Y81196D01*
X80587Y81093D01*
X80596Y81008D01*
X80606Y80933D01*
Y80829D01*
X80596Y80632D01*
X80578Y80454D01*
X80549Y80275D01*
X80502Y80115D01*
X80455Y79974D01*
X80399Y79843D01*
X80343Y79720D01*
X80286Y79608D01*
X80230Y79514D01*
X80164Y79429D01*
X80117Y79363D01*
X80070Y79307D01*
X80023Y79260D01*
X79995Y79232D01*
X79976Y79213D01*
X79967Y79204D01*
X79844Y79110D01*
X79704Y79025D01*
X79572Y78950D01*
X79422Y78884D01*
X79140Y78781D01*
X78867Y78715D01*
X78745Y78696D01*
X78623Y78677D01*
X78519Y78658D01*
X78435Y78649D01*
X78360D01*
X78303Y78640D01*
X78266D01*
X78256D01*
X78153D01*
X78040Y78630D01*
X77918D01*
X77796D01*
X77692D01*
X77608D01*
X77551D01*
X77542D01*
X77533D01*
X77364D01*
X77222D01*
X77100D01*
X76997D01*
X76912Y78640D01*
X76856D01*
X76818D01*
X76809D01*
X76612Y78649D01*
X76433Y78668D01*
X76255Y78696D01*
X76095Y78734D01*
X75944Y78781D01*
X75803Y78828D01*
X75672Y78875D01*
X75559Y78931D01*
X75446Y78978D01*
X75362Y79034D01*
X75277Y79072D01*
X75221Y79119D01*
X75164Y79156D01*
X75127Y79175D01*
X75108Y79194D01*
X75099Y79204D01*
X74986Y79307D01*
X74882Y79429D01*
X74798Y79551D01*
X74723Y79683D01*
X74657Y79824D01*
X74610Y79955D01*
X74563Y80087D01*
X74535Y80218D01*
X74507Y80341D01*
X74488Y80463D01*
X74469Y80566D01*
X74460Y80651D01*
X74450Y80726D01*
Y80829D01*
X74460Y81027D01*
X74478Y81205D01*
X74507Y81375D01*
X74553Y81534D01*
X74601Y81675D01*
X74657Y81807D01*
X74713Y81929D01*
X74770Y82042D01*
X74835Y82136D01*
X74892Y82220D01*
X74948Y82286D01*
X74995Y82343D01*
X75042Y82389D01*
X75070Y82418D01*
X75089Y82436D01*
X75099Y82446D01*
X75221Y82540D01*
X75362Y82624D01*
X75493Y82700D01*
X75644Y82765D01*
X75926Y82859D01*
X76198Y82935D01*
X76320Y82953D01*
X76442Y82972D01*
X76546Y82991D01*
X76630Y83000D01*
X76706D01*
X76762Y83010D01*
X76800D01*
X76809D01*
X77533Y83019D01*
X78256Y83010D01*
D02*
G37*
G36*
X70903Y82060D02*
X71101Y82051D01*
X71279Y82032D01*
X71458Y82004D01*
X71617Y81966D01*
X71768Y81919D01*
X71909Y81873D01*
X72040Y81826D01*
X72153Y81769D01*
X72257Y81722D01*
X72351Y81666D01*
X72435Y81619D01*
X72491Y81581D01*
X72548Y81544D01*
X72586Y81515D01*
X72604Y81506D01*
X72614Y81497D01*
X72726Y81384D01*
X72821Y81271D01*
X72905Y81149D01*
X72980Y81017D01*
X73046Y80876D01*
X73093Y80745D01*
X73168Y80482D01*
X73196Y80359D01*
X73215Y80247D01*
X73234Y80143D01*
X73243Y80059D01*
X73253Y79984D01*
Y79880D01*
X73243Y79683D01*
X73225Y79504D01*
X73196Y79326D01*
X73149Y79166D01*
X73102Y79025D01*
X73046Y78893D01*
X72990Y78771D01*
X72933Y78658D01*
X72877Y78565D01*
X72811Y78480D01*
X72764Y78414D01*
X72717Y78358D01*
X72670Y78311D01*
X72642Y78282D01*
X72623Y78264D01*
X72614Y78254D01*
X72491Y78160D01*
X72351Y78076D01*
X72219Y78001D01*
X72069Y77935D01*
X71787Y77831D01*
X71514Y77766D01*
X71392Y77747D01*
X71270Y77728D01*
X71166Y77709D01*
X71082Y77700D01*
X71007D01*
X70950Y77690D01*
X70913D01*
X70903D01*
X70800D01*
X70687Y77681D01*
X70565D01*
X70443D01*
X70339D01*
X70255D01*
X70198D01*
X70189D01*
X70180D01*
X70010D01*
X69869D01*
X69747D01*
X69644D01*
X69559Y77690D01*
X69503D01*
X69465D01*
X69456D01*
X69259Y77700D01*
X69080Y77719D01*
X68902Y77747D01*
X68742Y77784D01*
X68591Y77831D01*
X68450Y77878D01*
X68319Y77925D01*
X68206Y77982D01*
X68093Y78029D01*
X68009Y78085D01*
X67924Y78123D01*
X67868Y78170D01*
X67811Y78207D01*
X67774Y78226D01*
X67755Y78245D01*
X67746Y78254D01*
X67633Y78358D01*
X67529Y78480D01*
X67445Y78602D01*
X67370Y78734D01*
X67304Y78875D01*
X67257Y79006D01*
X67210Y79138D01*
X67182Y79269D01*
X67154Y79391D01*
X67135Y79514D01*
X67116Y79617D01*
X67106Y79702D01*
X67097Y79777D01*
Y79880D01*
X67106Y80077D01*
X67125Y80256D01*
X67154Y80425D01*
X67200Y80585D01*
X67248Y80726D01*
X67304Y80858D01*
X67360Y80980D01*
X67417Y81093D01*
X67482Y81187D01*
X67539Y81271D01*
X67595Y81337D01*
X67642Y81393D01*
X67689Y81440D01*
X67717Y81468D01*
X67736Y81487D01*
X67746Y81497D01*
X67868Y81591D01*
X68009Y81675D01*
X68140Y81750D01*
X68291Y81816D01*
X68573Y81910D01*
X68845Y81985D01*
X68967Y82004D01*
X69089Y82023D01*
X69193Y82042D01*
X69277Y82051D01*
X69353D01*
X69409Y82060D01*
X69447D01*
X69456D01*
X70180Y82070D01*
X70903Y82060D01*
D02*
G37*
G36*
X60073Y80068D02*
X60092D01*
X60101D01*
X65477Y78207D01*
X65590Y78151D01*
X65674Y78085D01*
X65731Y78019D01*
X65768Y77935D01*
X65796Y77869D01*
X65806Y77813D01*
X65815Y77775D01*
Y77418D01*
X65806Y77305D01*
X65768Y77211D01*
X65740Y77155D01*
X65731Y77145D01*
Y77136D01*
X65655Y77061D01*
X65571Y77004D01*
X65533Y76986D01*
X65505Y76976D01*
X65486Y76967D01*
X65477D01*
X60101Y75115D01*
X60045Y75097D01*
X60026D01*
X60017D01*
X59960Y75106D01*
X59923Y75125D01*
X59894Y75144D01*
X59885Y75153D01*
X59847Y75200D01*
X59838Y75238D01*
X59829Y75275D01*
Y75604D01*
X59838Y75689D01*
X59866Y75764D01*
X59894Y75820D01*
X59932Y75867D01*
X59979Y75895D01*
X60007Y75914D01*
X60035Y75933D01*
X60045D01*
X64960Y77587D01*
X60045Y79241D01*
X59970Y79279D01*
X59923Y79326D01*
X59885Y79382D01*
X59857Y79439D01*
X59838Y79495D01*
X59829Y79532D01*
Y79890D01*
X59838Y79946D01*
X59857Y79984D01*
X59876Y80012D01*
X59885Y80021D01*
X59932Y80049D01*
X59970Y80068D01*
X60007Y80077D01*
X60017D01*
X60073Y80068D01*
D02*
G37*
G36*
X80361Y77456D02*
X80408Y77427D01*
X80446Y77408D01*
X80455Y77399D01*
X80493Y77343D01*
X80512Y77296D01*
X80521Y77258D01*
Y76920D01*
X80512Y76854D01*
X80484Y76807D01*
X80465Y76769D01*
X80455Y76760D01*
X80399Y76713D01*
X80352Y76694D01*
X80314Y76685D01*
X80296D01*
X77946D01*
X77730Y76676D01*
X77551Y76638D01*
X77392Y76600D01*
X77260Y76544D01*
X77166Y76497D01*
X77091Y76450D01*
X77053Y76422D01*
X77035Y76412D01*
X76931Y76300D01*
X76856Y76187D01*
X76800Y76065D01*
X76762Y75942D01*
X76743Y75839D01*
X76724Y75754D01*
Y75679D01*
X76743Y75501D01*
X76781Y75341D01*
X76847Y75209D01*
X76922Y75097D01*
X77025Y74993D01*
X77129Y74909D01*
X77251Y74843D01*
X77364Y74787D01*
X77486Y74749D01*
X77608Y74721D01*
X77711Y74693D01*
X77815Y74683D01*
X77890Y74674D01*
X77955Y74664D01*
X77993D01*
X78012D01*
X80296D01*
X80361Y74655D01*
X80408Y74627D01*
X80446Y74608D01*
X80455Y74598D01*
X80493Y74542D01*
X80512Y74495D01*
X80521Y74458D01*
Y74119D01*
X80512Y74053D01*
X80484Y74006D01*
X80465Y73969D01*
X80455Y73959D01*
X80399Y73913D01*
X80352Y73894D01*
X80314Y73884D01*
X80296D01*
X77946D01*
X77730Y73875D01*
X77551Y73837D01*
X77392Y73800D01*
X77260Y73743D01*
X77166Y73696D01*
X77091Y73649D01*
X77053Y73621D01*
X77035Y73612D01*
X76931Y73499D01*
X76856Y73386D01*
X76800Y73264D01*
X76762Y73142D01*
X76743Y73038D01*
X76724Y72954D01*
Y72879D01*
X76743Y72700D01*
X76781Y72540D01*
X76847Y72409D01*
X76922Y72296D01*
X77025Y72193D01*
X77129Y72108D01*
X77251Y72042D01*
X77364Y71986D01*
X77486Y71948D01*
X77608Y71920D01*
X77711Y71892D01*
X77815Y71883D01*
X77890Y71873D01*
X77955Y71864D01*
X77993D01*
X78012D01*
X80296D01*
X80361Y71854D01*
X80408Y71826D01*
X80446Y71807D01*
X80455Y71798D01*
X80493Y71741D01*
X80512Y71694D01*
X80521Y71657D01*
Y71319D01*
X80512Y71253D01*
X80484Y71206D01*
X80465Y71168D01*
X80455Y71159D01*
X80399Y71112D01*
X80352Y71093D01*
X80314Y71084D01*
X80296D01*
X77927D01*
X77758D01*
X77598Y71102D01*
X77448Y71121D01*
X77307Y71149D01*
X77185Y71178D01*
X77063Y71215D01*
X76959Y71253D01*
X76865Y71290D01*
X76781Y71328D01*
X76706Y71366D01*
X76640Y71403D01*
X76593Y71431D01*
X76555Y71460D01*
X76518Y71478D01*
X76508Y71488D01*
X76499Y71497D01*
X76405Y71582D01*
X76330Y71666D01*
X76264Y71760D01*
X76207Y71864D01*
X76114Y72070D01*
X76057Y72268D01*
X76020Y72456D01*
X76010Y72531D01*
X76001Y72597D01*
X75991Y72653D01*
Y72738D01*
X76001Y72926D01*
X76020Y73085D01*
X76057Y73226D01*
X76085Y73349D01*
X76123Y73443D01*
X76160Y73518D01*
X76179Y73555D01*
X76189Y73574D01*
X76264Y73687D01*
X76349Y73790D01*
X76442Y73884D01*
X76527Y73969D01*
X76612Y74044D01*
X76677Y74091D01*
X76715Y74129D01*
X76734Y74138D01*
X76602Y74223D01*
X76490Y74317D01*
X76386Y74420D01*
X76301Y74523D01*
X76236Y74646D01*
X76170Y74758D01*
X76123Y74871D01*
X76085Y74993D01*
X76029Y75200D01*
X76010Y75294D01*
X76001Y75378D01*
X75991Y75444D01*
Y75538D01*
X76001Y75689D01*
X76020Y75830D01*
X76038Y75942D01*
X76066Y76046D01*
X76104Y76121D01*
X76123Y76177D01*
X76142Y76215D01*
X76151Y76224D01*
X76207Y76318D01*
X76283Y76403D01*
X76349Y76478D01*
X76414Y76553D01*
X76480Y76610D01*
X76527Y76647D01*
X76565Y76676D01*
X76574Y76685D01*
X76301D01*
X76236Y76694D01*
X76189Y76722D01*
X76151Y76751D01*
X76142Y76760D01*
X76104Y76816D01*
X76085Y76863D01*
X76076Y76901D01*
Y77239D01*
X76085Y77305D01*
X76104Y77352D01*
X76132Y77390D01*
X76142Y77399D01*
X76198Y77437D01*
X76245Y77456D01*
X76283Y77465D01*
X76301D01*
X80296D01*
X80361Y77456D01*
D02*
G37*
G36*
X73008Y76506D02*
X73055Y76478D01*
X73093Y76459D01*
X73102Y76450D01*
X73140Y76393D01*
X73159Y76347D01*
X73168Y76309D01*
Y75971D01*
X73159Y75905D01*
X73131Y75858D01*
X73112Y75820D01*
X73102Y75811D01*
X73046Y75764D01*
X72999Y75745D01*
X72961Y75736D01*
X72943D01*
X70593D01*
X70377Y75726D01*
X70198Y75689D01*
X70039Y75651D01*
X69907Y75595D01*
X69813Y75548D01*
X69738Y75501D01*
X69700Y75472D01*
X69682Y75463D01*
X69578Y75350D01*
X69503Y75238D01*
X69447Y75115D01*
X69409Y74993D01*
X69390Y74890D01*
X69371Y74805D01*
Y74730D01*
X69390Y74552D01*
X69428Y74392D01*
X69494Y74260D01*
X69569Y74147D01*
X69672Y74044D01*
X69776Y73959D01*
X69898Y73894D01*
X70010Y73837D01*
X70133Y73800D01*
X70255Y73772D01*
X70358Y73743D01*
X70462Y73734D01*
X70537Y73724D01*
X70603Y73715D01*
X70640D01*
X70659D01*
X72943D01*
X73008Y73706D01*
X73055Y73678D01*
X73093Y73659D01*
X73102Y73649D01*
X73140Y73593D01*
X73159Y73546D01*
X73168Y73508D01*
Y73170D01*
X73159Y73104D01*
X73131Y73057D01*
X73112Y73020D01*
X73102Y73010D01*
X73046Y72963D01*
X72999Y72944D01*
X72961Y72935D01*
X72943D01*
X70593D01*
X70377Y72926D01*
X70198Y72888D01*
X70039Y72850D01*
X69907Y72794D01*
X69813Y72747D01*
X69738Y72700D01*
X69700Y72672D01*
X69682Y72663D01*
X69578Y72550D01*
X69503Y72437D01*
X69447Y72315D01*
X69409Y72193D01*
X69390Y72089D01*
X69371Y72005D01*
Y71929D01*
X69390Y71751D01*
X69428Y71591D01*
X69494Y71460D01*
X69569Y71347D01*
X69672Y71243D01*
X69776Y71159D01*
X69898Y71093D01*
X70010Y71037D01*
X70133Y70999D01*
X70255Y70971D01*
X70358Y70943D01*
X70462Y70933D01*
X70537Y70924D01*
X70603Y70915D01*
X70640D01*
X70659D01*
X72943D01*
X73008Y70905D01*
X73055Y70877D01*
X73093Y70858D01*
X73102Y70849D01*
X73140Y70792D01*
X73159Y70745D01*
X73168Y70708D01*
Y70369D01*
X73159Y70304D01*
X73131Y70257D01*
X73112Y70219D01*
X73102Y70210D01*
X73046Y70163D01*
X72999Y70144D01*
X72961Y70135D01*
X72943D01*
X70574D01*
X70405D01*
X70245Y70153D01*
X70095Y70172D01*
X69954Y70200D01*
X69832Y70228D01*
X69710Y70266D01*
X69606Y70304D01*
X69512Y70341D01*
X69428Y70379D01*
X69353Y70416D01*
X69287Y70454D01*
X69240Y70482D01*
X69202Y70510D01*
X69165Y70529D01*
X69155Y70539D01*
X69146Y70548D01*
X69052Y70633D01*
X68977Y70717D01*
X68911Y70811D01*
X68854Y70915D01*
X68760Y71121D01*
X68704Y71319D01*
X68667Y71507D01*
X68657Y71582D01*
X68648Y71648D01*
X68638Y71704D01*
Y71789D01*
X68648Y71976D01*
X68667Y72136D01*
X68704Y72277D01*
X68732Y72399D01*
X68770Y72493D01*
X68808Y72568D01*
X68826Y72606D01*
X68836Y72625D01*
X68911Y72738D01*
X68995Y72841D01*
X69089Y72935D01*
X69174Y73020D01*
X69259Y73095D01*
X69324Y73142D01*
X69362Y73179D01*
X69381Y73189D01*
X69249Y73273D01*
X69137Y73367D01*
X69033Y73471D01*
X68948Y73574D01*
X68883Y73696D01*
X68817Y73809D01*
X68770Y73922D01*
X68732Y74044D01*
X68676Y74251D01*
X68657Y74345D01*
X68648Y74429D01*
X68638Y74495D01*
Y74589D01*
X68648Y74739D01*
X68667Y74880D01*
X68685Y74993D01*
X68714Y75097D01*
X68751Y75172D01*
X68770Y75228D01*
X68789Y75266D01*
X68798Y75275D01*
X68854Y75369D01*
X68930Y75454D01*
X68995Y75529D01*
X69061Y75604D01*
X69127Y75661D01*
X69174Y75698D01*
X69212Y75726D01*
X69221Y75736D01*
X68948D01*
X68883Y75745D01*
X68836Y75773D01*
X68798Y75801D01*
X68789Y75811D01*
X68751Y75867D01*
X68732Y75914D01*
X68723Y75952D01*
Y76290D01*
X68732Y76356D01*
X68751Y76403D01*
X68779Y76441D01*
X68789Y76450D01*
X68845Y76487D01*
X68892Y76506D01*
X68930Y76516D01*
X68948D01*
X72943D01*
X73008Y76506D01*
D02*
G37*
G36*
X80390Y70341D02*
X80437Y70322D01*
X80465Y70304D01*
X80474Y70294D01*
X80502Y70247D01*
X80512Y70210D01*
X80521Y70172D01*
Y69843D01*
X80512Y69759D01*
X80493Y69683D01*
X80455Y69627D01*
X80418Y69580D01*
X80380Y69552D01*
X80343Y69533D01*
X80324Y69514D01*
X80314D01*
X79177Y69063D01*
Y66093D01*
X80314Y65652D01*
X80380Y65614D01*
X80437Y65567D01*
X80474Y65511D01*
X80493Y65454D01*
X80512Y65398D01*
X80521Y65351D01*
Y65003D01*
X80512Y64947D01*
X80493Y64900D01*
X80484Y64872D01*
X80474Y64862D01*
X80427Y64825D01*
X80380Y64815D01*
X80343Y64806D01*
X80333D01*
X80296Y64815D01*
X80258Y64825D01*
X80230Y64834D01*
X80220Y64843D01*
X74817Y66930D01*
X74723Y66977D01*
X74657Y67033D01*
X74601Y67099D01*
X74572Y67165D01*
X74553Y67221D01*
X74535Y67268D01*
Y67832D01*
X74544Y67926D01*
X74582Y68011D01*
X74619Y68076D01*
X74676Y68123D01*
X74723Y68170D01*
X74770Y68198D01*
X74807Y68208D01*
X74817Y68217D01*
X80220Y70313D01*
X80267Y70332D01*
X80305Y70341D01*
X80324Y70351D01*
X80333D01*
X80390Y70341D01*
D02*
G37*
G36*
X73037Y69392D02*
X73084Y69373D01*
X73112Y69354D01*
X73121Y69345D01*
X73149Y69298D01*
X73159Y69260D01*
X73168Y69223D01*
Y68894D01*
X73159Y68809D01*
X73140Y68734D01*
X73102Y68678D01*
X73065Y68631D01*
X73027Y68603D01*
X72990Y68584D01*
X72971Y68565D01*
X72961D01*
X71824Y68114D01*
Y65144D01*
X72961Y64702D01*
X73027Y64665D01*
X73084Y64618D01*
X73121Y64561D01*
X73140Y64505D01*
X73159Y64449D01*
X73168Y64402D01*
Y64054D01*
X73159Y63998D01*
X73140Y63951D01*
X73131Y63922D01*
X73121Y63913D01*
X73074Y63875D01*
X73027Y63866D01*
X72990Y63857D01*
X72980D01*
X72943Y63866D01*
X72905Y63875D01*
X72877Y63885D01*
X72867Y63894D01*
X67464Y65981D01*
X67370Y66027D01*
X67304Y66084D01*
X67248Y66150D01*
X67219Y66216D01*
X67200Y66272D01*
X67182Y66319D01*
Y66883D01*
X67191Y66977D01*
X67229Y67061D01*
X67266Y67127D01*
X67323Y67174D01*
X67370Y67221D01*
X67417Y67249D01*
X67454Y67259D01*
X67464Y67268D01*
X72867Y69364D01*
X72915Y69383D01*
X72952Y69392D01*
X72971Y69401D01*
X72980D01*
X73037Y69392D01*
D02*
G37*
G36*
X56263Y110950D02*
X56334Y110908D01*
X56390Y110879D01*
X56405Y110865D01*
X56461Y110781D01*
X56489Y110696D01*
X56503Y110640D01*
Y108990D01*
X56489Y108892D01*
X56447Y108821D01*
X56419Y108765D01*
X56405Y108751D01*
X56320Y108694D01*
X56249Y108666D01*
X56193Y108652D01*
X56165D01*
X52838D01*
X52641Y108638D01*
X52457Y108610D01*
X52302Y108568D01*
X52175Y108511D01*
X52063Y108441D01*
X51978Y108356D01*
X51894Y108272D01*
X51837Y108187D01*
X51753Y108018D01*
X51710Y107863D01*
Y107806D01*
X51696Y107764D01*
Y107722D01*
X51710Y107553D01*
X51738Y107412D01*
X51781Y107285D01*
X51837Y107186D01*
X51894Y107116D01*
X51936Y107059D01*
X51964Y107031D01*
X51978Y107017D01*
X52091Y106946D01*
X52232Y106890D01*
X52387Y106848D01*
X52528Y106819D01*
X52669Y106805D01*
X52782Y106791D01*
X52852D01*
X52866D01*
X52880D01*
X56165D01*
X56263Y106777D01*
X56334Y106735D01*
X56390Y106707D01*
X56405Y106693D01*
X56461Y106608D01*
X56489Y106524D01*
X56503Y106467D01*
Y104888D01*
X56489Y104790D01*
X56447Y104719D01*
X56419Y104663D01*
X56405Y104649D01*
X56320Y104578D01*
X56249Y104550D01*
X56193Y104536D01*
X56165D01*
X52880D01*
X52669Y104522D01*
X52471Y104494D01*
X52316Y104465D01*
X52189Y104423D01*
X52105Y104381D01*
X52034Y104339D01*
X51992Y104324D01*
X51978Y104310D01*
X51879Y104212D01*
X51809Y104099D01*
X51767Y103986D01*
X51724Y103873D01*
X51710Y103775D01*
X51696Y103690D01*
Y103619D01*
X51710Y103450D01*
X51738Y103309D01*
X51781Y103182D01*
X51837Y103084D01*
X51894Y103013D01*
X51936Y102957D01*
X51964Y102929D01*
X51978Y102915D01*
X52091Y102830D01*
X52232Y102774D01*
X52387Y102731D01*
X52528Y102703D01*
X52669Y102689D01*
X52782Y102675D01*
X52852D01*
X52866D01*
X52880D01*
X56165D01*
X56263Y102661D01*
X56334Y102619D01*
X56390Y102590D01*
X56405Y102576D01*
X56461Y102492D01*
X56489Y102407D01*
X56503Y102351D01*
Y100772D01*
X56489Y100673D01*
X56447Y100603D01*
X56419Y100546D01*
X56405Y100532D01*
X56320Y100476D01*
X56249Y100448D01*
X56193Y100434D01*
X56165D01*
X52627D01*
X52359Y100448D01*
X52119Y100462D01*
X51879Y100490D01*
X51668Y100546D01*
X51471Y100589D01*
X51301Y100645D01*
X51132Y100716D01*
X50991Y100772D01*
X50864Y100842D01*
X50752Y100899D01*
X50653Y100969D01*
X50582Y101012D01*
X50512Y101054D01*
X50470Y101096D01*
X50456Y101110D01*
X50441Y101124D01*
X50315Y101251D01*
X50202Y101392D01*
X50103Y101547D01*
X50019Y101702D01*
X49892Y102013D01*
X49793Y102294D01*
X49751Y102562D01*
X49737Y102675D01*
X49722Y102774D01*
X49708Y102858D01*
Y102971D01*
X49722Y103197D01*
X49751Y103408D01*
X49793Y103605D01*
X49835Y103775D01*
X49878Y103930D01*
X49920Y104028D01*
X49948Y104099D01*
X49962Y104127D01*
X50061Y104310D01*
X50188Y104494D01*
X50315Y104635D01*
X50427Y104775D01*
X50540Y104874D01*
X50625Y104959D01*
X50681Y105015D01*
X50709Y105029D01*
X50526Y105156D01*
X50371Y105297D01*
X50244Y105438D01*
X50145Y105579D01*
X50061Y105706D01*
X50005Y105805D01*
X49976Y105861D01*
X49962Y105889D01*
X49878Y106087D01*
X49821Y106298D01*
X49765Y106495D01*
X49737Y106679D01*
X49722Y106848D01*
X49708Y106975D01*
Y107087D01*
X49722Y107271D01*
X49737Y107454D01*
X49821Y107764D01*
X49948Y108046D01*
X50089Y108272D01*
X50230Y108469D01*
X50357Y108596D01*
X50441Y108680D01*
X50456Y108694D01*
X50470Y108708D01*
X50174D01*
X50075Y108723D01*
X50005Y108765D01*
X49948Y108807D01*
X49934Y108821D01*
X49878Y108906D01*
X49849Y108976D01*
X49835Y109033D01*
Y110612D01*
X49849Y110710D01*
X49878Y110795D01*
X49920Y110851D01*
X49934Y110865D01*
X50019Y110922D01*
X50089Y110950D01*
X50145Y110964D01*
X50174D01*
X56165D01*
X56263Y110950D01*
D02*
G37*
G36*
Y98982D02*
X56334Y98939D01*
X56390Y98911D01*
X56405Y98897D01*
X56461Y98813D01*
X56489Y98728D01*
X56503Y98672D01*
Y97022D01*
X56489Y96924D01*
X56447Y96853D01*
X56419Y96797D01*
X56405Y96783D01*
X56320Y96726D01*
X56249Y96698D01*
X56193Y96684D01*
X56165D01*
X50174D01*
X50075Y96698D01*
X50005Y96726D01*
X49948Y96768D01*
X49934Y96783D01*
X49878Y96867D01*
X49849Y96938D01*
X49835Y96994D01*
Y98643D01*
X49849Y98742D01*
X49878Y98827D01*
X49920Y98883D01*
X49934Y98897D01*
X50019Y98953D01*
X50089Y98982D01*
X50145Y98996D01*
X50174D01*
X56165D01*
X56263Y98982D01*
D02*
G37*
G36*
Y95175D02*
X56334Y95133D01*
X56390Y95105D01*
X56405Y95091D01*
X56461Y95006D01*
X56489Y94922D01*
X56503Y94865D01*
Y93216D01*
X56489Y93117D01*
X56447Y93047D01*
X56419Y92990D01*
X56405Y92976D01*
X56320Y92920D01*
X56249Y92892D01*
X56193Y92878D01*
X56165D01*
X52909D01*
X52697Y92864D01*
X52528Y92835D01*
X52373Y92793D01*
X52246Y92737D01*
X52147Y92694D01*
X52077Y92652D01*
X52034Y92624D01*
X52020Y92610D01*
X51908Y92497D01*
X51837Y92356D01*
X51781Y92215D01*
X51738Y92074D01*
X51710Y91961D01*
X51696Y91863D01*
Y91764D01*
X51710Y91567D01*
X51753Y91397D01*
X51795Y91257D01*
X51851Y91130D01*
X51922Y91045D01*
X51964Y90989D01*
X52006Y90946D01*
X52020Y90932D01*
X52147Y90834D01*
X52302Y90763D01*
X52443Y90721D01*
X52584Y90679D01*
X52711Y90664D01*
X52810Y90650D01*
X52880D01*
X52909D01*
X56165D01*
X56263Y90636D01*
X56334Y90594D01*
X56390Y90566D01*
X56405Y90552D01*
X56461Y90467D01*
X56489Y90382D01*
X56503Y90326D01*
Y88691D01*
X56489Y88592D01*
X56447Y88522D01*
X56419Y88465D01*
X56405Y88451D01*
X56320Y88381D01*
X56249Y88352D01*
X56193Y88338D01*
X56165D01*
X52627D01*
X52359Y88352D01*
X52119Y88367D01*
X51879Y88409D01*
X51668Y88451D01*
X51471Y88507D01*
X51301Y88578D01*
X51132Y88649D01*
X50991Y88705D01*
X50864Y88775D01*
X50752Y88846D01*
X50653Y88916D01*
X50582Y88973D01*
X50512Y89015D01*
X50470Y89057D01*
X50456Y89071D01*
X50441Y89086D01*
X50315Y89227D01*
X50202Y89382D01*
X50103Y89551D01*
X50019Y89720D01*
X49892Y90058D01*
X49793Y90382D01*
X49765Y90538D01*
X49751Y90679D01*
X49737Y90805D01*
X49722Y90918D01*
X49708Y91003D01*
Y91130D01*
X49722Y91341D01*
X49737Y91552D01*
X49821Y91919D01*
X49948Y92229D01*
X50089Y92483D01*
X50230Y92680D01*
X50286Y92751D01*
X50357Y92821D01*
X50399Y92864D01*
X50441Y92906D01*
X50456Y92920D01*
X50470Y92934D01*
X50174D01*
X50075Y92948D01*
X50005Y92990D01*
X49948Y93033D01*
X49934Y93047D01*
X49878Y93131D01*
X49849Y93202D01*
X49835Y93258D01*
Y94837D01*
X49849Y94936D01*
X49878Y95020D01*
X49920Y95077D01*
X49934Y95091D01*
X50019Y95147D01*
X50089Y95175D01*
X50145Y95190D01*
X50174D01*
X56165D01*
X56263Y95175D01*
D02*
G37*
G36*
Y86901D02*
X56334Y86858D01*
X56390Y86830D01*
X56405Y86816D01*
X56461Y86731D01*
X56489Y86647D01*
X56503Y86590D01*
Y84941D01*
X56489Y84842D01*
X56447Y84772D01*
X56419Y84715D01*
X56405Y84701D01*
X56320Y84645D01*
X56249Y84617D01*
X56193Y84603D01*
X56165D01*
X50174D01*
X50075Y84617D01*
X50005Y84645D01*
X49948Y84687D01*
X49934Y84701D01*
X49878Y84786D01*
X49849Y84856D01*
X49835Y84913D01*
Y86562D01*
X49849Y86661D01*
X49878Y86745D01*
X49920Y86802D01*
X49934Y86816D01*
X50019Y86872D01*
X50089Y86901D01*
X50145Y86915D01*
X50174D01*
X56165D01*
X56263Y86901D01*
D02*
G37*
G36*
Y83094D02*
X56334Y83052D01*
X56390Y83024D01*
X56405Y83010D01*
X56461Y82925D01*
X56489Y82841D01*
X56503Y82784D01*
Y81135D01*
X56489Y81036D01*
X56447Y80966D01*
X56419Y80909D01*
X56405Y80895D01*
X56320Y80839D01*
X56249Y80811D01*
X56193Y80796D01*
X56165D01*
X52838D01*
X52641Y80782D01*
X52457Y80754D01*
X52302Y80712D01*
X52175Y80655D01*
X52063Y80585D01*
X51978Y80500D01*
X51894Y80416D01*
X51837Y80331D01*
X51753Y80162D01*
X51710Y80007D01*
Y79951D01*
X51696Y79908D01*
Y79866D01*
X51710Y79697D01*
X51738Y79556D01*
X51781Y79429D01*
X51837Y79330D01*
X51894Y79260D01*
X51936Y79204D01*
X51964Y79175D01*
X51978Y79161D01*
X52091Y79091D01*
X52232Y79034D01*
X52387Y78992D01*
X52528Y78964D01*
X52669Y78950D01*
X52782Y78936D01*
X52852D01*
X52866D01*
X52880D01*
X56165D01*
X56263Y78922D01*
X56334Y78879D01*
X56390Y78851D01*
X56405Y78837D01*
X56461Y78752D01*
X56489Y78668D01*
X56503Y78611D01*
Y77033D01*
X56489Y76934D01*
X56447Y76863D01*
X56419Y76807D01*
X56405Y76793D01*
X56320Y76722D01*
X56249Y76694D01*
X56193Y76680D01*
X56165D01*
X52880D01*
X52669Y76666D01*
X52471Y76638D01*
X52316Y76610D01*
X52189Y76567D01*
X52105Y76525D01*
X52034Y76483D01*
X51992Y76469D01*
X51978Y76455D01*
X51879Y76356D01*
X51809Y76243D01*
X51767Y76130D01*
X51724Y76018D01*
X51710Y75919D01*
X51696Y75834D01*
Y75764D01*
X51710Y75595D01*
X51738Y75454D01*
X51781Y75327D01*
X51837Y75228D01*
X51894Y75158D01*
X51936Y75101D01*
X51964Y75073D01*
X51978Y75059D01*
X52091Y74974D01*
X52232Y74918D01*
X52387Y74876D01*
X52528Y74848D01*
X52669Y74833D01*
X52782Y74819D01*
X52852D01*
X52866D01*
X52880D01*
X56165D01*
X56263Y74805D01*
X56334Y74763D01*
X56390Y74735D01*
X56405Y74721D01*
X56461Y74636D01*
X56489Y74552D01*
X56503Y74495D01*
Y72916D01*
X56489Y72818D01*
X56447Y72747D01*
X56419Y72691D01*
X56405Y72677D01*
X56320Y72620D01*
X56249Y72592D01*
X56193Y72578D01*
X56165D01*
X52627D01*
X52359Y72592D01*
X52119Y72606D01*
X51879Y72634D01*
X51668Y72691D01*
X51471Y72733D01*
X51301Y72789D01*
X51132Y72860D01*
X50991Y72916D01*
X50864Y72987D01*
X50752Y73043D01*
X50653Y73114D01*
X50582Y73156D01*
X50512Y73198D01*
X50470Y73240D01*
X50456Y73255D01*
X50441Y73269D01*
X50315Y73396D01*
X50202Y73537D01*
X50103Y73692D01*
X50019Y73847D01*
X49892Y74157D01*
X49793Y74439D01*
X49751Y74707D01*
X49737Y74819D01*
X49722Y74918D01*
X49708Y75003D01*
Y75115D01*
X49722Y75341D01*
X49751Y75552D01*
X49793Y75750D01*
X49835Y75919D01*
X49878Y76074D01*
X49920Y76173D01*
X49948Y76243D01*
X49962Y76271D01*
X50061Y76455D01*
X50188Y76638D01*
X50315Y76779D01*
X50427Y76920D01*
X50540Y77018D01*
X50625Y77103D01*
X50681Y77160D01*
X50709Y77174D01*
X50526Y77300D01*
X50371Y77441D01*
X50244Y77582D01*
X50145Y77723D01*
X50061Y77850D01*
X50005Y77949D01*
X49976Y78005D01*
X49962Y78033D01*
X49878Y78231D01*
X49821Y78442D01*
X49765Y78640D01*
X49737Y78823D01*
X49722Y78992D01*
X49708Y79119D01*
Y79232D01*
X49722Y79415D01*
X49737Y79598D01*
X49821Y79908D01*
X49948Y80190D01*
X50089Y80416D01*
X50230Y80613D01*
X50357Y80740D01*
X50441Y80825D01*
X50456Y80839D01*
X50470Y80853D01*
X50174D01*
X50075Y80867D01*
X50005Y80909D01*
X49948Y80952D01*
X49934Y80966D01*
X49878Y81050D01*
X49849Y81121D01*
X49835Y81177D01*
Y82756D01*
X49849Y82855D01*
X49878Y82939D01*
X49920Y82996D01*
X49934Y83010D01*
X50019Y83066D01*
X50089Y83094D01*
X50145Y83108D01*
X50174D01*
X56165D01*
X56263Y83094D01*
D02*
G37*
G36*
X54783Y71563D02*
X54924Y71549D01*
X55220Y71478D01*
X55460Y71380D01*
X55672Y71267D01*
X55841Y71168D01*
X55967Y71070D01*
X56038Y70999D01*
X56066Y70971D01*
X56249Y70717D01*
X56390Y70449D01*
X56489Y70167D01*
X56560Y69885D01*
X56602Y69646D01*
X56616Y69547D01*
Y69462D01*
X56630Y69378D01*
Y69279D01*
X56616Y69026D01*
X56602Y68786D01*
X56574Y68589D01*
X56531Y68419D01*
X56489Y68292D01*
X56461Y68194D01*
X56447Y68123D01*
X56433Y68109D01*
X56348Y67940D01*
X56249Y67785D01*
X56137Y67644D01*
X56038Y67531D01*
X55939Y67432D01*
X55869Y67362D01*
X55812Y67320D01*
X55798Y67306D01*
X56165D01*
X56263Y67292D01*
X56334Y67249D01*
X56390Y67221D01*
X56405Y67207D01*
X56461Y67122D01*
X56489Y67052D01*
X56503Y66996D01*
Y65346D01*
X56489Y65248D01*
X56447Y65177D01*
X56419Y65121D01*
X56405Y65107D01*
X56320Y65036D01*
X56249Y65008D01*
X56193Y64994D01*
X56165D01*
X52274D01*
X52063Y65008D01*
X51851Y65022D01*
X51485Y65121D01*
X51160Y65233D01*
X50893Y65374D01*
X50780Y65459D01*
X50681Y65529D01*
X50596Y65586D01*
X50526Y65642D01*
X50470Y65699D01*
X50427Y65741D01*
X50413Y65755D01*
X50399Y65769D01*
X50272Y65924D01*
X50174Y66079D01*
X50075Y66262D01*
X50005Y66446D01*
X49878Y66826D01*
X49793Y67193D01*
X49765Y67376D01*
X49751Y67531D01*
X49722Y67672D01*
Y67799D01*
X49708Y67912D01*
Y68053D01*
X49722Y68363D01*
X49751Y68645D01*
X49807Y68899D01*
X49849Y69138D01*
X49906Y69321D01*
X49962Y69462D01*
X49976Y69519D01*
X49990Y69561D01*
X50005Y69575D01*
Y69589D01*
X50117Y69829D01*
X50230Y70055D01*
X50357Y70238D01*
X50470Y70393D01*
X50568Y70520D01*
X50653Y70619D01*
X50709Y70675D01*
X50723Y70689D01*
X50879Y70816D01*
X51034Y70929D01*
X51175Y70999D01*
X51287Y71055D01*
X51400Y71098D01*
X51471Y71112D01*
X51527Y71126D01*
X51541D01*
X51626D01*
X51696Y71098D01*
X51738Y71070D01*
X51753Y71055D01*
X51795Y70985D01*
X51809Y70915D01*
X51823Y70858D01*
Y69110D01*
X51809Y69026D01*
X51795Y68969D01*
Y68955D01*
X51767Y68870D01*
X51724Y68800D01*
X51682Y68758D01*
X51668Y68744D01*
X51597Y68631D01*
X51541Y68518D01*
X51499Y68405D01*
X51471Y68292D01*
X51456Y68194D01*
X51442Y68123D01*
Y68053D01*
X51456Y67926D01*
X51471Y67799D01*
X51513Y67700D01*
X51555Y67616D01*
X51668Y67489D01*
X51795Y67404D01*
X51922Y67348D01*
X52034Y67320D01*
X52119Y67306D01*
X52133D01*
X52147D01*
X52401Y68814D01*
X52443Y69068D01*
X52500Y69307D01*
X52570Y69533D01*
X52627Y69744D01*
X52697Y69928D01*
X52753Y70097D01*
X52824Y70266D01*
X52894Y70393D01*
X52951Y70520D01*
X53007Y70619D01*
X53064Y70717D01*
X53106Y70788D01*
X53148Y70844D01*
X53176Y70886D01*
X53204Y70900D01*
Y70915D01*
X53317Y71027D01*
X53416Y71126D01*
X53656Y71295D01*
X53895Y71408D01*
X54121Y71493D01*
X54318Y71535D01*
X54473Y71563D01*
X54530Y71577D01*
X54572D01*
X54600D01*
X54614D01*
X54783Y71563D01*
D02*
G37*
G36*
X47740Y98996D02*
X48778D01*
X48877Y98982D01*
X48961Y98939D01*
X49018Y98911D01*
X49032Y98897D01*
X49088Y98813D01*
X49116Y98728D01*
X49131Y98672D01*
Y97022D01*
X49116Y96924D01*
X49074Y96853D01*
X49046Y96797D01*
X49032Y96783D01*
X48947Y96726D01*
X48863Y96698D01*
X48806Y96684D01*
X48778D01*
X47740D01*
Y86915D01*
X48778D01*
X48877Y86901D01*
X48961Y86858D01*
X49018Y86830D01*
X49032Y86816D01*
X49088Y86731D01*
X49116Y86647D01*
X49131Y86590D01*
Y84941D01*
X49116Y84842D01*
X49074Y84772D01*
X49046Y84715D01*
X49032Y84701D01*
X48947Y84645D01*
X48863Y84617D01*
X48806Y84603D01*
X48778D01*
X47740D01*
Y31285D01*
X36093D01*
Y110950D01*
X47740D01*
Y98996D01*
D02*
G37*
%LPC*%
G36*
X63898Y84278D02*
X63860D01*
X63842D01*
X63720Y84269D01*
X63597Y84250D01*
X63494Y84222D01*
X63400Y84194D01*
X63325Y84166D01*
X63259Y84137D01*
X63221Y84119D01*
X63212Y84109D01*
X63109Y84044D01*
X63005Y83959D01*
X62930Y83884D01*
X62855Y83799D01*
X62808Y83733D01*
X62761Y83677D01*
X62742Y83630D01*
X62733Y83621D01*
X62667Y83498D01*
X62620Y83367D01*
X62592Y83245D01*
X62564Y83123D01*
X62554Y83028D01*
X62545Y82944D01*
Y82878D01*
X62554Y82728D01*
X62573Y82587D01*
X62601Y82455D01*
X62639Y82352D01*
X62676Y82258D01*
X62705Y82192D01*
X62723Y82155D01*
X62733Y82136D01*
X62808Y82023D01*
X62883Y81919D01*
X62958Y81844D01*
X63043Y81769D01*
X63109Y81713D01*
X63165Y81675D01*
X63203Y81656D01*
X63212Y81647D01*
X63325Y81591D01*
X63438Y81544D01*
X63541Y81515D01*
X63635Y81487D01*
X63720Y81478D01*
X63785Y81468D01*
X63823D01*
X63842D01*
X63964Y81478D01*
X64086Y81497D01*
X64189Y81525D01*
X64283Y81553D01*
X64368Y81591D01*
X64424Y81619D01*
X64471Y81638D01*
X64481Y81647D01*
X64584Y81713D01*
X64678Y81797D01*
X64763Y81873D01*
X64828Y81957D01*
X64885Y82023D01*
X64922Y82079D01*
X64951Y82117D01*
X64960Y82136D01*
X65016Y82258D01*
X65063Y82389D01*
X65092Y82512D01*
X65120Y82624D01*
X65129Y82728D01*
X65139Y82803D01*
Y82878D01*
X65129Y83028D01*
X65110Y83169D01*
X65082Y83292D01*
X65045Y83404D01*
X65016Y83498D01*
X64988Y83564D01*
X64969Y83602D01*
X64960Y83621D01*
X64885Y83733D01*
X64810Y83827D01*
X64725Y83912D01*
X64650Y83987D01*
X64584Y84034D01*
X64528Y84081D01*
X64490Y84100D01*
X64481Y84109D01*
X64368Y84166D01*
X64255Y84203D01*
X64142Y84241D01*
X64048Y84260D01*
X63964Y84269D01*
X63898Y84278D01*
D02*
G37*
G36*
X77533Y82211D02*
X76809Y82201D01*
X76527Y82183D01*
X76283Y82136D01*
X76076Y82060D01*
X75888Y81976D01*
X75738Y81873D01*
X75606Y81750D01*
X75503Y81628D01*
X75418Y81506D01*
X75352Y81375D01*
X75305Y81252D01*
X75268Y81139D01*
X75249Y81036D01*
X75230Y80952D01*
X75221Y80886D01*
Y80829D01*
X75240Y80594D01*
X75286Y80388D01*
X75371Y80200D01*
X75465Y80049D01*
X75587Y79918D01*
X75719Y79805D01*
X75869Y79711D01*
X76010Y79636D01*
X76160Y79579D01*
X76301Y79532D01*
X76442Y79495D01*
X76565Y79476D01*
X76659Y79457D01*
X76743Y79448D01*
X76790D01*
X76809D01*
X76912D01*
X77025Y79439D01*
X77147D01*
X77270D01*
X77373D01*
X77457D01*
X77514D01*
X77523D01*
X77533D01*
X77702D01*
X77843D01*
X77965D01*
X78068D01*
X78153Y79448D01*
X78209D01*
X78247D01*
X78256D01*
X78538Y79467D01*
X78783Y79514D01*
X78989Y79589D01*
X79177Y79683D01*
X79328Y79786D01*
X79459Y79899D01*
X79563Y80021D01*
X79647Y80153D01*
X79713Y80275D01*
X79760Y80407D01*
X79798Y80519D01*
X79816Y80623D01*
X79835Y80707D01*
X79844Y80773D01*
Y80829D01*
X79826Y81064D01*
X79779Y81271D01*
X79694Y81459D01*
X79600Y81609D01*
X79478Y81741D01*
X79337Y81854D01*
X79196Y81948D01*
X79046Y82023D01*
X78905Y82079D01*
X78754Y82117D01*
X78623Y82155D01*
X78501Y82173D01*
X78407Y82192D01*
X78322Y82201D01*
X78275D01*
X78256D01*
X77533Y82211D01*
D02*
G37*
G36*
X70180Y81262D02*
X69456Y81252D01*
X69174Y81234D01*
X68930Y81187D01*
X68723Y81111D01*
X68535Y81027D01*
X68385Y80923D01*
X68253Y80801D01*
X68150Y80679D01*
X68065Y80557D01*
X67999Y80425D01*
X67952Y80303D01*
X67915Y80190D01*
X67896Y80087D01*
X67877Y80002D01*
X67868Y79937D01*
Y79880D01*
X67887Y79645D01*
X67934Y79439D01*
X68018Y79250D01*
X68112Y79100D01*
X68234Y78969D01*
X68366Y78856D01*
X68516Y78762D01*
X68657Y78687D01*
X68808Y78630D01*
X68948Y78583D01*
X69089Y78546D01*
X69212Y78527D01*
X69306Y78508D01*
X69390Y78499D01*
X69437D01*
X69456D01*
X69559D01*
X69672Y78489D01*
X69794D01*
X69917D01*
X70020D01*
X70104D01*
X70161D01*
X70170D01*
X70180D01*
X70349D01*
X70490D01*
X70612D01*
X70715D01*
X70800Y78499D01*
X70856D01*
X70894D01*
X70903D01*
X71185Y78517D01*
X71430Y78565D01*
X71636Y78640D01*
X71824Y78734D01*
X71975Y78837D01*
X72106Y78950D01*
X72210Y79072D01*
X72294Y79204D01*
X72360Y79326D01*
X72407Y79457D01*
X72445Y79570D01*
X72463Y79673D01*
X72482Y79758D01*
X72491Y79824D01*
Y79880D01*
X72473Y80115D01*
X72426Y80322D01*
X72341Y80510D01*
X72247Y80660D01*
X72125Y80792D01*
X71984Y80905D01*
X71843Y80998D01*
X71693Y81074D01*
X71552Y81130D01*
X71401Y81168D01*
X71270Y81205D01*
X71148Y81224D01*
X71054Y81243D01*
X70969Y81252D01*
X70922D01*
X70903D01*
X70180Y81262D01*
D02*
G37*
G36*
X78407Y68762D02*
X75343Y67578D01*
X78407Y66394D01*
Y68762D01*
D02*
G37*
G36*
X71054Y67813D02*
X67990Y66629D01*
X71054Y65445D01*
Y67813D01*
D02*
G37*
G36*
X54487Y69265D02*
X54473D01*
X54389Y69251D01*
X54304Y69237D01*
X54191Y69152D01*
X54107Y69082D01*
X54078Y69068D01*
Y69054D01*
X53966Y68870D01*
X53895Y68687D01*
X53881Y68617D01*
X53867Y68546D01*
X53853Y68504D01*
Y68490D01*
X53670Y67306D01*
X53853Y67320D01*
X54022Y67362D01*
X54177Y67432D01*
X54304Y67503D01*
X54417Y67573D01*
X54487Y67644D01*
X54544Y67686D01*
X54558Y67700D01*
X54671Y67855D01*
X54755Y68011D01*
X54826Y68166D01*
X54868Y68321D01*
X54896Y68447D01*
X54910Y68546D01*
Y68758D01*
X54896Y68842D01*
X54840Y68997D01*
X54769Y69110D01*
X54685Y69181D01*
X54614Y69237D01*
X54544Y69251D01*
X54487Y69265D01*
D02*
G37*
G36*
X46343Y109680D02*
D01*
Y109412D01*
X46329Y109468D01*
X46315Y109539D01*
X46273Y109609D01*
X46259Y109624D01*
X46216Y109638D01*
X46146Y109666D01*
X46061Y109680D01*
X46343D01*
X46019D01*
X45963Y109666D01*
X45878Y109638D01*
X37786Y106832D01*
X37772D01*
X37758Y106818D01*
X37673Y106790D01*
X37589Y106720D01*
X37490Y106635D01*
X37476Y106607D01*
X37420Y106536D01*
X37378Y106410D01*
X37363Y106254D01*
Y104098D01*
X37378Y104041D01*
X37420Y103914D01*
X37490Y103801D01*
X37504Y103773D01*
X37575Y103717D01*
X37659Y103660D01*
X37786Y103604D01*
X45878Y100799D01*
X45892Y100785D01*
X45949Y100771D01*
X46005Y100757D01*
X46061Y100743D01*
X37363D01*
X46343D01*
Y109680D01*
D02*
G37*
G36*
Y100348D02*
D01*
Y97430D01*
X46329Y97486D01*
X46301Y97556D01*
X46245Y97641D01*
X46230Y97655D01*
X46174Y97683D01*
X46104Y97726D01*
X46005Y97740D01*
X39422D01*
Y100038D01*
X39407Y100094D01*
X39379Y100164D01*
X39323Y100249D01*
X39309Y100263D01*
X39252Y100291D01*
X39168Y100334D01*
X39069Y100348D01*
X37673D01*
X37617Y100334D01*
X37547Y100306D01*
X37462Y100249D01*
X37448Y100235D01*
X37406Y100179D01*
X37378Y100108D01*
X37363Y100009D01*
Y93074D01*
X37378Y93017D01*
X37406Y92947D01*
X37462Y92862D01*
X37476Y92848D01*
X37533Y92806D01*
X37603Y92778D01*
X37702Y92764D01*
X37363D01*
X46343D01*
Y100348D01*
D02*
G37*
G36*
X39069Y92242D02*
X37673D01*
X37617Y92228D01*
X37547Y92200D01*
X37462Y92143D01*
X37448Y92129D01*
X37406Y92073D01*
X37378Y92002D01*
X37363Y91904D01*
Y92242D01*
Y84658D01*
D01*
Y84968D01*
X37378Y84911D01*
X37406Y84841D01*
X37462Y84756D01*
X37476Y84742D01*
X37533Y84700D01*
X37603Y84672D01*
X37702Y84658D01*
X37363D01*
X46343D01*
X39097D01*
X39154Y84672D01*
X39238Y84700D01*
X39323Y84756D01*
X39337Y84771D01*
X39365Y84827D01*
X39407Y84897D01*
X39422Y84996D01*
Y87266D01*
X46005D01*
X46033D01*
X46089Y87280D01*
X46160Y87308D01*
X46245Y87364D01*
X46259Y87379D01*
X46287Y87435D01*
X46329Y87505D01*
X46343Y87604D01*
Y89324D01*
X46329Y89380D01*
X46301Y89451D01*
X46245Y89535D01*
X46230Y89550D01*
X46174Y89578D01*
X46104Y89620D01*
X46005Y89634D01*
X39422D01*
Y91932D01*
X39407Y91988D01*
X39379Y92059D01*
X39323Y92143D01*
X39309Y92157D01*
X39252Y92186D01*
X39168Y92228D01*
X39069Y92242D01*
D02*
G37*
G36*
X46343Y83502D02*
D01*
Y83178D01*
X46329Y83234D01*
X46301Y83319D01*
X46245Y83403D01*
X46230Y83417D01*
X46174Y83446D01*
X46104Y83488D01*
X46005Y83502D01*
X46343D01*
X37673D01*
X37617Y83488D01*
X37547Y83460D01*
X37462Y83403D01*
X37448Y83389D01*
X37406Y83333D01*
X37378Y83248D01*
X37363Y83149D01*
Y81444D01*
X37378Y81387D01*
X37406Y81317D01*
X37462Y81232D01*
X37476Y81218D01*
X37533Y81176D01*
X37603Y81133D01*
X37702Y81119D01*
X37363D01*
D01*
X46343D01*
Y83502D01*
D02*
G37*
G36*
Y79329D02*
D01*
Y79005D01*
X46329Y79061D01*
X46301Y79146D01*
X46245Y79230D01*
X46230Y79244D01*
X46174Y79273D01*
X46104Y79315D01*
X46005Y79329D01*
X46343D01*
X37673D01*
X37617Y79315D01*
X37547Y79287D01*
X37462Y79230D01*
X37448Y79216D01*
X37406Y79160D01*
X37378Y79075D01*
X37363Y78977D01*
Y77609D01*
X37378Y77525D01*
X37406Y77426D01*
X37462Y77313D01*
X37476Y77285D01*
X37518Y77229D01*
X37575Y77172D01*
X37659Y77116D01*
X42044Y74170D01*
X37702D01*
X37673D01*
X37617Y74156D01*
X37547Y74127D01*
X37462Y74071D01*
X37448Y74057D01*
X37406Y74001D01*
X37378Y73930D01*
X37363Y73831D01*
Y72112D01*
X37378Y72055D01*
X37406Y71985D01*
X37462Y71900D01*
X37476Y71886D01*
X37533Y71844D01*
X37603Y71815D01*
X37702Y71801D01*
X37363D01*
D01*
X46343D01*
Y79329D01*
D02*
G37*
G36*
Y70688D02*
D01*
Y67347D01*
X46329Y67403D01*
X46301Y67488D01*
X46245Y67572D01*
X46230Y67586D01*
X46174Y67614D01*
X46104Y67657D01*
X46005Y67671D01*
X43270D01*
X37815Y70631D01*
X37800Y70645D01*
X37758Y70659D01*
X37702Y70674D01*
X37645Y70688D01*
X37631D01*
X37575Y70674D01*
X37518Y70645D01*
X37448Y70603D01*
X37434Y70589D01*
X37406Y70547D01*
X37378Y70490D01*
X37363Y70406D01*
Y68601D01*
X37378Y68517D01*
X37406Y68404D01*
X37476Y68291D01*
X37490Y68263D01*
X37533Y68221D01*
X37603Y68150D01*
X37688Y68108D01*
X40845Y66487D01*
X37688Y64851D01*
X37673Y64837D01*
X37617Y64809D01*
X37547Y64767D01*
X37476Y64682D01*
X37462Y64654D01*
X37420Y64584D01*
X37378Y64471D01*
X37363Y64316D01*
Y62540D01*
X37378Y62483D01*
X37392Y62427D01*
X37448Y62356D01*
X37462Y62342D01*
X37504Y62314D01*
X37561Y62286D01*
X37645Y62272D01*
X37363D01*
D01*
X46343D01*
Y70688D01*
D02*
G37*
G36*
Y61863D02*
D01*
Y58508D01*
X46329Y58564D01*
X46301Y58649D01*
X46245Y58733D01*
X46230Y58748D01*
X46174Y58776D01*
X46104Y58818D01*
X46005Y58832D01*
X40394D01*
X41550Y60355D01*
X41564Y60369D01*
X41578Y60425D01*
X41607Y60496D01*
X41621Y60580D01*
Y60608D01*
X41607Y60679D01*
X41564Y60763D01*
X41480Y60848D01*
X40253Y61792D01*
X40239Y61807D01*
X40197Y61821D01*
X40126Y61849D01*
X40042Y61863D01*
X40014D01*
X39943Y61849D01*
X39845Y61807D01*
X39760Y61722D01*
X37645Y58959D01*
X37617Y58931D01*
X37589Y58889D01*
X37547Y58832D01*
X37533Y58818D01*
X37504Y58762D01*
X37462Y58691D01*
X37420Y58607D01*
X37406Y58578D01*
X37392Y58522D01*
X37378Y58451D01*
X37363Y58367D01*
Y56774D01*
X37378Y56718D01*
X37406Y56647D01*
X37462Y56562D01*
X37476Y56548D01*
X37533Y56506D01*
X37603Y56464D01*
X37702Y56450D01*
X37363D01*
X46343D01*
Y61863D01*
D02*
G37*
G36*
X46470Y55167D02*
D01*
Y51502D01*
X46456Y51586D01*
Y51699D01*
X46428Y51953D01*
X46371Y52249D01*
X46315Y52573D01*
X46216Y52911D01*
X46089Y53250D01*
Y53264D01*
X46075Y53292D01*
X46047Y53334D01*
X46019Y53391D01*
X45920Y53560D01*
X45793Y53757D01*
X45638Y53969D01*
X45441Y54208D01*
X45215Y54434D01*
X44962Y54645D01*
X44948D01*
X44934Y54674D01*
X44891Y54688D01*
X44835Y54730D01*
X44764Y54772D01*
X44680Y54814D01*
X44468Y54899D01*
X44229Y54998D01*
X43933Y55082D01*
X43608Y55139D01*
X43256Y55167D01*
X43171D01*
X43073Y55153D01*
X42960D01*
X42819Y55139D01*
X42678Y55111D01*
X42368Y55026D01*
X42354Y55012D01*
X42297Y54998D01*
X42227Y54970D01*
X42128Y54927D01*
X41917Y54829D01*
X41804Y54772D01*
X41705Y54716D01*
X41691Y54702D01*
X41649Y54688D01*
X41592Y54645D01*
X41508Y54589D01*
X41395Y54518D01*
X41268Y54420D01*
X41113Y54321D01*
X40930Y54194D01*
X37617Y51741D01*
X37589Y51727D01*
X37561Y51699D01*
X37518Y51671D01*
X37504Y51657D01*
X37476Y51628D01*
X37434Y51586D01*
X37406Y51530D01*
X37392Y51516D01*
X37378Y51473D01*
X37363Y51417D01*
Y49288D01*
X37378Y49232D01*
X37392Y49176D01*
X37448Y49119D01*
X37462Y49105D01*
X37504Y49077D01*
X37561Y49063D01*
X37645Y49049D01*
X37659D01*
X37688Y49063D01*
X37744Y49077D01*
X37815Y49119D01*
X40070Y50783D01*
Y50740D01*
X40084Y50698D01*
X40098Y50628D01*
X40112Y50543D01*
X40126Y50444D01*
X40169Y50219D01*
X40239Y49965D01*
X40338Y49683D01*
X40451Y49401D01*
X40592Y49119D01*
Y49105D01*
X40606Y49091D01*
X40634Y49049D01*
X40662Y48992D01*
X40761Y48865D01*
X40888Y48696D01*
X41043Y48499D01*
X41226Y48302D01*
X41452Y48104D01*
X41691Y47935D01*
X41705D01*
X41719Y47921D01*
X41762Y47893D01*
X41804Y47865D01*
X41945Y47794D01*
X42142Y47710D01*
X42368Y47639D01*
X42636Y47569D01*
X42932Y47512D01*
X43256Y47498D01*
X37363D01*
X46470D01*
Y55167D01*
D02*
G37*
G36*
X46343Y46920D02*
D01*
Y43565D01*
X46329Y43621D01*
X46301Y43706D01*
X46245Y43791D01*
X46230Y43805D01*
X46174Y43833D01*
X46104Y43875D01*
X46005Y43889D01*
X40394D01*
X41550Y45412D01*
X41564Y45426D01*
X41578Y45482D01*
X41607Y45553D01*
X41621Y45637D01*
Y45665D01*
X41607Y45736D01*
X41564Y45821D01*
X41480Y45905D01*
X40253Y46850D01*
X40239Y46864D01*
X40197Y46878D01*
X40126Y46906D01*
X40042Y46920D01*
X40014D01*
X39943Y46906D01*
X39845Y46864D01*
X39760Y46779D01*
X37645Y44016D01*
X37617Y43988D01*
X37589Y43946D01*
X37547Y43889D01*
X37533Y43875D01*
X37504Y43819D01*
X37462Y43748D01*
X37420Y43664D01*
X37406Y43636D01*
X37392Y43579D01*
X37378Y43509D01*
X37363Y43424D01*
Y41831D01*
X37378Y41775D01*
X37406Y41704D01*
X37462Y41620D01*
X37476Y41606D01*
X37533Y41563D01*
X37603Y41521D01*
X37702Y41507D01*
X37363D01*
D01*
X46343D01*
Y46920D01*
D02*
G37*
G36*
X46470Y40224D02*
D01*
Y36559D01*
X46456Y36643D01*
Y36756D01*
X46428Y37010D01*
X46371Y37306D01*
X46315Y37630D01*
X46216Y37968D01*
X46089Y38307D01*
Y38321D01*
X46075Y38349D01*
X46047Y38391D01*
X46019Y38448D01*
X45920Y38617D01*
X45793Y38814D01*
X45638Y39026D01*
X45441Y39265D01*
X45215Y39491D01*
X44962Y39702D01*
X44948D01*
X44934Y39731D01*
X44891Y39745D01*
X44835Y39787D01*
X44764Y39829D01*
X44680Y39872D01*
X44468Y39956D01*
X44229Y40055D01*
X43933Y40139D01*
X43608Y40196D01*
X43256Y40224D01*
X42531D01*
X43171D01*
X43073Y40210D01*
X42960D01*
X42819Y40196D01*
X42678Y40168D01*
X42368Y40083D01*
X42354Y40069D01*
X42297Y40055D01*
X42227Y40027D01*
X42128Y39984D01*
X41917Y39886D01*
X41804Y39829D01*
X41705Y39773D01*
X41691Y39759D01*
X41649Y39745D01*
X41592Y39702D01*
X41508Y39646D01*
X41395Y39576D01*
X41268Y39477D01*
X41113Y39378D01*
X40930Y39251D01*
X37617Y36799D01*
X37589Y36784D01*
X37561Y36756D01*
X37518Y36728D01*
X37504Y36714D01*
X37476Y36686D01*
X37434Y36643D01*
X37406Y36587D01*
X37392Y36573D01*
X37378Y36531D01*
X37363Y36474D01*
Y34346D01*
X37378Y34289D01*
X37392Y34233D01*
X37448Y34176D01*
X37462Y34162D01*
X37504Y34134D01*
X37561Y34120D01*
X37645Y34106D01*
X37659D01*
X37688Y34120D01*
X37744Y34134D01*
X37815Y34176D01*
X40070Y35840D01*
Y35798D01*
X40084Y35755D01*
X40098Y35685D01*
X40112Y35600D01*
X40126Y35502D01*
X40169Y35276D01*
X40239Y35022D01*
X40338Y34740D01*
X40451Y34458D01*
X40592Y34176D01*
Y34162D01*
X40606Y34148D01*
X40634Y34106D01*
X40662Y34050D01*
X40761Y33923D01*
X40888Y33753D01*
X41043Y33556D01*
X41226Y33359D01*
X41452Y33161D01*
X41691Y32992D01*
X41705D01*
X41719Y32978D01*
X41762Y32950D01*
X41804Y32922D01*
X41945Y32851D01*
X42142Y32767D01*
X42368Y32696D01*
X42636Y32626D01*
X42932Y32569D01*
X43256Y32555D01*
X37363D01*
X46470D01*
Y40224D01*
D02*
G37*
%LPD*%
G36*
X42974Y104182D02*
X39887Y105211D01*
X42974Y106254D01*
Y104182D01*
D02*
G37*
G36*
X46343Y102688D02*
X46329Y102772D01*
X46301Y102885D01*
X46259Y102998D01*
X46245Y103012D01*
X46188Y103054D01*
X46118Y103111D01*
X46033Y103153D01*
X44962Y103505D01*
Y106931D01*
X46033Y107283D01*
X46047Y107298D01*
X46104Y107326D01*
X46188Y107368D01*
X46259Y107453D01*
X46273Y107467D01*
X46301Y107537D01*
X46329Y107636D01*
X46343Y107791D01*
Y102688D01*
D02*
G37*
G36*
Y100743D02*
X46075D01*
X46132Y100757D01*
X46202Y100771D01*
X46273Y100827D01*
X46287Y100841D01*
X46301Y100883D01*
X46329Y100940D01*
X46343Y101024D01*
Y100743D01*
D02*
G37*
G36*
Y92764D02*
X39097D01*
X39154Y92778D01*
X39238Y92806D01*
X39323Y92862D01*
X39337Y92876D01*
X39365Y92933D01*
X39407Y93003D01*
X39422Y93102D01*
Y95372D01*
X46005D01*
X46033D01*
X46089Y95386D01*
X46160Y95414D01*
X46245Y95470D01*
X46259Y95484D01*
X46287Y95541D01*
X46329Y95611D01*
X46343Y95710D01*
Y92764D01*
D02*
G37*
G36*
Y81119D02*
X46033D01*
X46089Y81133D01*
X46160Y81162D01*
X46245Y81232D01*
X46259Y81246D01*
X46287Y81303D01*
X46329Y81373D01*
X46343Y81472D01*
Y81119D01*
D02*
G37*
G36*
Y73507D02*
X46329Y73592D01*
X46301Y73704D01*
X46259Y73817D01*
X46245Y73845D01*
X46202Y73888D01*
X46132Y73958D01*
X46061Y74015D01*
X41663Y76947D01*
X46005D01*
X46033D01*
X46089Y76961D01*
X46160Y76989D01*
X46245Y77059D01*
X46259Y77074D01*
X46287Y77130D01*
X46329Y77200D01*
X46343Y77299D01*
Y73507D01*
D02*
G37*
G36*
Y71801D02*
X46033D01*
X46089Y71815D01*
X46160Y71844D01*
X46245Y71900D01*
X46259Y71914D01*
X46287Y71971D01*
X46329Y72041D01*
X46343Y72140D01*
Y71801D01*
D02*
G37*
G36*
Y62272D02*
X37688D01*
X37744Y62300D01*
X37815Y62328D01*
X43270Y65289D01*
X46005D01*
X46033D01*
X46089Y65303D01*
X46160Y65331D01*
X46245Y65401D01*
X46259Y65415D01*
X46287Y65472D01*
X46329Y65542D01*
X46343Y65641D01*
Y62272D01*
D02*
G37*
G36*
Y56450D02*
X46033D01*
X46089Y56464D01*
X46160Y56492D01*
X46245Y56562D01*
X46259Y56577D01*
X46287Y56633D01*
X46329Y56703D01*
X46343Y56802D01*
Y56450D01*
D02*
G37*
G36*
X43341Y52770D02*
X43439Y52756D01*
X43552Y52728D01*
X43693Y52672D01*
X43834Y52601D01*
X43975Y52488D01*
X44102Y52347D01*
X44116Y52333D01*
X44158Y52263D01*
X44200Y52178D01*
X44257Y52051D01*
X44327Y51896D01*
X44370Y51727D01*
X44412Y51530D01*
X44426Y51318D01*
Y51220D01*
X44412Y51107D01*
X44384Y50980D01*
X44341Y50811D01*
X44285Y50642D01*
X44215Y50473D01*
X44102Y50303D01*
X44088Y50289D01*
X44045Y50233D01*
X43975Y50162D01*
X43876Y50078D01*
X43749Y50007D01*
X43608Y49937D01*
X43439Y49880D01*
X43256Y49866D01*
X43228D01*
X43171D01*
X43073Y49895D01*
X42960Y49923D01*
X42819Y49979D01*
X42678Y50050D01*
X42537Y50162D01*
X42410Y50303D01*
X42396Y50318D01*
X42354Y50374D01*
X42311Y50473D01*
X42241Y50599D01*
X42185Y50740D01*
X42142Y50910D01*
X42100Y51107D01*
X42086Y51318D01*
Y51417D01*
X42100Y51530D01*
X42128Y51657D01*
X42171Y51826D01*
X42227Y51995D01*
X42297Y52178D01*
X42410Y52347D01*
X42424Y52362D01*
X42467Y52418D01*
X42537Y52488D01*
X42636Y52559D01*
X42763Y52643D01*
X42903Y52714D01*
X43073Y52770D01*
X43256Y52785D01*
X43284D01*
X43341Y52770D01*
D02*
G37*
G36*
X46470Y47498D02*
X43355D01*
X43425Y47512D01*
X43510D01*
X43608Y47526D01*
X43834Y47569D01*
X44102Y47625D01*
X44384Y47724D01*
X44680Y47850D01*
X44962Y48020D01*
X44976D01*
X44990Y48048D01*
X45089Y48118D01*
X45215Y48231D01*
X45370Y48386D01*
X45554Y48584D01*
X45751Y48823D01*
X45920Y49105D01*
X46089Y49415D01*
Y49429D01*
X46104Y49458D01*
X46118Y49500D01*
X46146Y49570D01*
X46174Y49641D01*
X46216Y49739D01*
X46245Y49852D01*
X46273Y49979D01*
X46343Y50261D01*
X46414Y50585D01*
X46456Y50938D01*
X46470Y51318D01*
Y47498D01*
D02*
G37*
G36*
X46343Y41507D02*
X46033D01*
X46089Y41521D01*
X46160Y41549D01*
X46245Y41620D01*
X46259Y41634D01*
X46287Y41690D01*
X46329Y41761D01*
X46343Y41859D01*
Y41507D01*
D02*
G37*
G36*
X43341Y37828D02*
X43439Y37813D01*
X43552Y37785D01*
X43693Y37729D01*
X43834Y37658D01*
X43975Y37546D01*
X44102Y37405D01*
X44116Y37391D01*
X44158Y37320D01*
X44200Y37236D01*
X44257Y37109D01*
X44327Y36953D01*
X44370Y36784D01*
X44412Y36587D01*
X44426Y36376D01*
Y36277D01*
X44412Y36164D01*
X44384Y36037D01*
X44341Y35868D01*
X44285Y35699D01*
X44215Y35530D01*
X44102Y35361D01*
X44088Y35347D01*
X44045Y35290D01*
X43975Y35220D01*
X43876Y35135D01*
X43749Y35064D01*
X43608Y34994D01*
X43439Y34938D01*
X43256Y34924D01*
X43228D01*
X43171D01*
X43073Y34952D01*
X42960Y34980D01*
X42819Y35036D01*
X42678Y35107D01*
X42537Y35220D01*
X42410Y35361D01*
X42396Y35375D01*
X42354Y35431D01*
X42311Y35530D01*
X42241Y35657D01*
X42185Y35798D01*
X42142Y35967D01*
X42100Y36164D01*
X42086Y36376D01*
Y36474D01*
X42100Y36587D01*
X42128Y36714D01*
X42171Y36883D01*
X42227Y37052D01*
X42297Y37236D01*
X42410Y37405D01*
X42424Y37419D01*
X42467Y37475D01*
X42537Y37546D01*
X42636Y37616D01*
X42763Y37701D01*
X42903Y37771D01*
X43073Y37828D01*
X43256Y37842D01*
X43284D01*
X43341Y37828D01*
D02*
G37*
G36*
X46470Y32555D02*
X43355D01*
X43425Y32569D01*
X43510D01*
X43608Y32583D01*
X43834Y32626D01*
X44102Y32682D01*
X44384Y32781D01*
X44680Y32908D01*
X44962Y33077D01*
X44976D01*
X44990Y33105D01*
X45089Y33175D01*
X45215Y33288D01*
X45370Y33443D01*
X45554Y33641D01*
X45751Y33880D01*
X45920Y34162D01*
X46089Y34472D01*
Y34487D01*
X46104Y34515D01*
X46118Y34557D01*
X46146Y34627D01*
X46174Y34698D01*
X46216Y34797D01*
X46245Y34910D01*
X46273Y35036D01*
X46343Y35318D01*
X46414Y35642D01*
X46456Y35995D01*
X46470Y36376D01*
Y32555D01*
D02*
G37*
M02*
