G04*
G04 #@! TF.GenerationSoftware,Altium Limited,Altium Designer,24.9.1 (31)*
G04*
G04 Layer_Color=65535*
%FSLAX44Y44*%
%MOMM*%
G71*
G04*
G04 #@! TF.SameCoordinates,B6DCB2D1-0443-4E39-BFFB-B68A34243BA1*
G04*
G04*
G04 #@! TF.FilePolarity,Positive*
G04*
G01*
G75*
%ADD10C,0.2500*%
%ADD11C,0.2000*%
%ADD12C,0.1500*%
%ADD13C,0.1270*%
G36*
X939995Y624198D02*
X942470Y621723D01*
X944945Y624198D01*
X942470Y625259D01*
X939995Y624198D01*
D02*
G37*
G54D10*
X944890Y527000D02*
G03*
X944890Y527000I-1250J0D01*
G01*
X906790D02*
G03*
X906790Y527000I-1250J0D01*
G01*
X949377Y619602D02*
G03*
X949377Y619602I-1250J0D01*
G01*
G54D11*
X944945Y624198D02*
G03*
X939995Y624198I-2475J-2475D01*
G01*
X945890Y534750D02*
Y544750D01*
X976890Y534750D02*
Y544750D01*
X945890Y534750D02*
X976890D01*
X945890Y544750D02*
X976890D01*
X907790Y534750D02*
Y544750D01*
X938790Y534750D02*
Y544750D01*
X907790Y534750D02*
X938790D01*
X907790Y544750D02*
X938790D01*
X961916Y646118D02*
X964391Y643643D01*
X961916Y641169D02*
X964391Y643643D01*
X942470Y665564D02*
X944945Y663089D01*
X939995D02*
X942470Y665564D01*
X920550Y643643D02*
X923025Y646118D01*
X920550Y643643D02*
X923025Y641169D01*
X939995Y624198D02*
X942470Y621723D01*
X944945Y624198D01*
G54D12*
X922020Y501540D02*
Y519540D01*
X939020Y515540D02*
Y519540D01*
X905020D02*
X939020D01*
X905020Y515540D02*
Y519540D01*
Y501540D02*
Y505540D01*
Y501540D02*
X939020D01*
Y505540D01*
X901590Y576580D02*
X919590D01*
X915590Y559580D02*
X919590D01*
Y593580D01*
X915590D02*
X919590D01*
X901590D02*
X905590D01*
X901590Y559580D02*
Y593580D01*
Y559580D02*
X905590D01*
X923370Y580230D02*
X925370D01*
X923370Y560230D02*
Y580230D01*
Y560230D02*
X925370D01*
X931370D02*
X933370D01*
Y580230D01*
X931370D02*
X933370D01*
X953770Y559960D02*
Y577960D01*
X936770Y559960D02*
Y563960D01*
Y559960D02*
X970770D01*
Y563960D01*
Y573960D02*
Y577960D01*
X936770D02*
X970770D01*
X936770Y573960D02*
Y577960D01*
X974170Y580230D02*
X976170D01*
X974170Y560230D02*
Y580230D01*
Y560230D02*
X976170D01*
X982170D02*
X984170D01*
Y580230D01*
X982170D02*
X984170D01*
X962660Y501540D02*
Y519540D01*
X979660Y515540D02*
Y519540D01*
X945660D02*
X979660D01*
X945660Y515540D02*
Y519540D01*
Y501540D02*
Y505540D01*
Y501540D02*
X979660D01*
Y505540D01*
X977900Y584200D02*
X979170D01*
Y607060D01*
X977900D02*
X979170D01*
X969010D02*
X970280D01*
X969010Y584200D02*
Y607060D01*
Y584200D02*
X970280D01*
X969010Y595630D02*
X979170D01*
X943610Y584090D02*
Y602090D01*
X924560Y595630D02*
Y602090D01*
X963930D01*
Y600090D02*
Y602090D01*
X924560Y584090D02*
Y590550D01*
Y584090D02*
X963930D01*
Y586090D01*
X923290Y595630D02*
X924560D01*
X923290D02*
Y602090D01*
X924560D01*
X923290Y584090D02*
X924560D01*
X923290D02*
Y590550D01*
X924560D01*
X941070Y593090D02*
X943610D01*
X946150Y590550D02*
Y595630D01*
X943610Y593090D02*
X946150Y590550D01*
X943610Y593090D02*
X946150Y595630D01*
X957710Y610568D02*
X959124Y609153D01*
X973267Y623296D01*
X971852Y624710D02*
X973267Y623296D01*
X966196Y630367D02*
X967610Y628952D01*
X952053Y616224D02*
X966196Y630367D01*
X952053Y616224D02*
X953468Y614810D01*
G54D13*
X922866Y678178D02*
X919480D01*
Y675639D01*
X921173Y676486D01*
X922019D01*
X922866Y675639D01*
Y673946D01*
X922019Y673100D01*
X920326D01*
X919480Y673946D01*
X924558Y678178D02*
Y674793D01*
X926251Y673100D01*
X927944Y674793D01*
Y678178D01*
X956213Y677429D02*
X957059Y678276D01*
X958752D01*
X959598Y677429D01*
Y676583D01*
X958752Y675736D01*
X957906D01*
X958752D01*
X959598Y674890D01*
Y674044D01*
X958752Y673197D01*
X957059D01*
X956213Y674044D01*
X961291Y678276D02*
Y674890D01*
X962984Y673197D01*
X964677Y674890D01*
Y678276D01*
X966369Y677429D02*
X967216Y678276D01*
X968909D01*
X969755Y677429D01*
Y676583D01*
X968909Y675736D01*
X968062D01*
X968909D01*
X969755Y674890D01*
Y674044D01*
X968909Y673197D01*
X967216D01*
X966369Y674044D01*
X987638Y495300D02*
X986792Y496146D01*
Y497839D01*
X987638Y498686D01*
X988484D01*
X989331Y497839D01*
Y496993D01*
Y497839D01*
X990177Y498686D01*
X991024D01*
X991870Y497839D01*
Y496146D01*
X991024Y495300D01*
X986792Y500378D02*
X990177D01*
X991870Y502071D01*
X990177Y503764D01*
X986792D01*
X987638Y505457D02*
X986792Y506303D01*
Y507996D01*
X987638Y508842D01*
X988484D01*
X989331Y507996D01*
Y507150D01*
Y507996D01*
X990177Y508842D01*
X991024D01*
X991870Y507996D01*
Y506303D01*
X991024Y505457D01*
X892812Y648970D02*
X897890D01*
Y651509D01*
X897044Y652356D01*
X896197D01*
X895351Y651509D01*
Y648970D01*
Y651509D01*
X894504Y652356D01*
X893658D01*
X892812Y651509D01*
Y648970D01*
X893658Y654048D02*
X892812Y654895D01*
Y656588D01*
X893658Y657434D01*
X894504D01*
X895351Y656588D01*
Y655741D01*
Y656588D01*
X896197Y657434D01*
X897044D01*
X897890Y656588D01*
Y654895D01*
X897044Y654048D01*
X892812Y631190D02*
X897890D01*
Y633729D01*
X897044Y634576D01*
X896197D01*
X895351Y633729D01*
Y631190D01*
Y633729D01*
X894504Y634576D01*
X893658D01*
X892812Y633729D01*
Y631190D01*
X897890Y639654D02*
Y636268D01*
X894504Y639654D01*
X893658D01*
X892812Y638807D01*
Y637115D01*
X893658Y636268D01*
X892812Y613410D02*
X897890D01*
Y615949D01*
X897044Y616796D01*
X896197D01*
X895351Y615949D01*
Y613410D01*
Y615949D01*
X894504Y616796D01*
X893658D01*
X892812Y615949D01*
Y613410D01*
X897890Y618488D02*
Y620181D01*
Y619335D01*
X892812D01*
X893658Y618488D01*
X892812Y593090D02*
X897890D01*
Y595629D01*
X897044Y596476D01*
X896197D01*
X895351Y595629D01*
Y593090D01*
Y595629D01*
X894504Y596476D01*
X893658D01*
X892812Y595629D01*
Y593090D01*
X893658Y598168D02*
X892812Y599015D01*
Y600708D01*
X893658Y601554D01*
X897044D01*
X897890Y600708D01*
Y599015D01*
X897044Y598168D01*
X893658D01*
Y576156D02*
X892812Y575309D01*
Y573616D01*
X893658Y572770D01*
X897044D01*
X897890Y573616D01*
Y575309D01*
X897044Y576156D01*
X893658Y577848D02*
X892812Y578695D01*
Y580387D01*
X893658Y581234D01*
X897044D01*
X897890Y580387D01*
Y578695D01*
X897044Y577848D01*
X893658D01*
Y558376D02*
X892812Y557529D01*
Y555836D01*
X893658Y554990D01*
X897044D01*
X897890Y555836D01*
Y557529D01*
X897044Y558376D01*
X897890Y560068D02*
Y561761D01*
Y560915D01*
X892812D01*
X893658Y560068D01*
Y538056D02*
X892812Y537209D01*
Y535516D01*
X893658Y534670D01*
X897044D01*
X897890Y535516D01*
Y537209D01*
X897044Y538056D01*
X897890Y543134D02*
Y539748D01*
X894504Y543134D01*
X893658D01*
X892812Y542287D01*
Y540595D01*
X893658Y539748D01*
Y520276D02*
X892812Y519429D01*
Y517736D01*
X893658Y516890D01*
X897044D01*
X897890Y517736D01*
Y519429D01*
X897044Y520276D01*
X893658Y521968D02*
X892812Y522815D01*
Y524507D01*
X893658Y525354D01*
X894504D01*
X895351Y524507D01*
Y523661D01*
Y524507D01*
X896197Y525354D01*
X897044D01*
X897890Y524507D01*
Y522815D01*
X897044Y521968D01*
X892812Y499956D02*
Y496570D01*
X895351D01*
X894504Y498263D01*
Y499109D01*
X895351Y499956D01*
X897044D01*
X897890Y499109D01*
Y497416D01*
X897044Y496570D01*
X892812Y501648D02*
X896197D01*
X897890Y503341D01*
X896197Y505034D01*
X892812D01*
X900008Y479636D02*
X899162Y478789D01*
Y477096D01*
X900008Y476250D01*
X903394D01*
X904240Y477096D01*
Y478789D01*
X903394Y479636D01*
X901701D01*
Y477943D01*
X904240Y481328D02*
X899162D01*
X904240Y484714D01*
X899162D01*
Y486407D02*
X904240D01*
Y488946D01*
X903394Y489792D01*
X900008D01*
X899162Y488946D01*
Y486407D01*
X982558Y668866D02*
X981712Y668019D01*
Y666326D01*
X982558Y665480D01*
X985944D01*
X986790Y666326D01*
Y668019D01*
X985944Y668866D01*
X984251D01*
Y667173D01*
X986790Y670558D02*
X981712D01*
X986790Y673944D01*
X981712D01*
Y675637D02*
X986790D01*
Y678176D01*
X985944Y679022D01*
X982558D01*
X981712Y678176D01*
Y675637D01*
X892812Y669290D02*
X897890D01*
Y671829D01*
X897044Y672676D01*
X896197D01*
X895351Y671829D01*
Y669290D01*
Y671829D01*
X894504Y672676D01*
X893658D01*
X892812Y671829D01*
Y669290D01*
X897890Y676908D02*
X892812D01*
X895351Y674368D01*
Y677754D01*
X986792Y650240D02*
X991870D01*
Y652779D01*
X991024Y653626D01*
X990177D01*
X989331Y652779D01*
Y650240D01*
Y652779D01*
X988484Y653626D01*
X987638D01*
X986792Y652779D01*
Y650240D01*
Y658704D02*
Y655318D01*
X989331D01*
X988484Y657011D01*
Y657858D01*
X989331Y658704D01*
X991024D01*
X991870Y657858D01*
Y656165D01*
X991024Y655318D01*
X991870Y629920D02*
X988484D01*
X986792Y631613D01*
X988484Y633306D01*
X991870D01*
X989331D01*
Y629920D01*
X986792Y634998D02*
Y638384D01*
X987638D01*
X991024Y634998D01*
X991870D01*
Y612140D02*
X988484D01*
X986792Y613833D01*
X988484Y615526D01*
X991870D01*
X989331D01*
Y612140D01*
X986792Y620604D02*
X987638Y618911D01*
X989331Y617218D01*
X991024D01*
X991870Y618065D01*
Y619757D01*
X991024Y620604D01*
X990177D01*
X989331Y619757D01*
Y617218D01*
X991870Y591820D02*
X988484D01*
X986792Y593513D01*
X988484Y595206D01*
X991870D01*
X989331D01*
Y591820D01*
X986792Y600284D02*
Y596898D01*
X989331D01*
X988484Y598591D01*
Y599437D01*
X989331Y600284D01*
X991024D01*
X991870Y599437D01*
Y597745D01*
X991024Y596898D01*
X991870Y574040D02*
X988484D01*
X986792Y575733D01*
X988484Y577426D01*
X991870D01*
X989331D01*
Y574040D01*
X991870Y581657D02*
X986792D01*
X989331Y579118D01*
Y582504D01*
X991870Y553720D02*
X988484D01*
X986792Y555413D01*
X988484Y557106D01*
X991870D01*
X989331D01*
Y553720D01*
X987638Y558798D02*
X986792Y559645D01*
Y561338D01*
X987638Y562184D01*
X988484D01*
X989331Y561338D01*
Y560491D01*
Y561338D01*
X990177Y562184D01*
X991024D01*
X991870Y561338D01*
Y559645D01*
X991024Y558798D01*
X991870Y535940D02*
X988484D01*
X986792Y537633D01*
X988484Y539326D01*
X991870D01*
X989331D01*
Y535940D01*
X991870Y544404D02*
Y541018D01*
X988484Y544404D01*
X987638D01*
X986792Y543558D01*
Y541865D01*
X987638Y541018D01*
X991870Y518160D02*
X988484D01*
X986792Y519853D01*
X988484Y521546D01*
X991870D01*
X989331D01*
Y518160D01*
X991870Y523238D02*
Y524931D01*
Y524085D01*
X986792D01*
X987638Y523238D01*
X986792Y476250D02*
X990177D01*
X991870Y477943D01*
X990177Y479636D01*
X986792D01*
Y481328D02*
Y483021D01*
Y482175D01*
X991870D01*
Y481328D01*
Y483021D01*
Y485560D02*
X986792D01*
X991870Y488946D01*
X986792D01*
X964776Y495722D02*
X963929Y496568D01*
X962236D01*
X961390Y495722D01*
Y492336D01*
X962236Y491490D01*
X963929D01*
X964776Y492336D01*
Y494029D01*
X963083D01*
X966468Y491490D02*
Y496568D01*
X969854Y491490D01*
Y496568D01*
X971547D02*
Y491490D01*
X974086D01*
X974932Y492336D01*
Y495722D01*
X974086Y496568D01*
X971547D01*
X933450D02*
Y492336D01*
X934296Y491490D01*
X935989D01*
X936836Y492336D01*
Y496568D01*
X938528Y491490D02*
Y496568D01*
X941068D01*
X941914Y495722D01*
Y494029D01*
X941068Y493183D01*
X938528D01*
X943607Y496568D02*
Y491490D01*
X946146D01*
X946992Y492336D01*
Y495722D01*
X946146Y496568D01*
X943607D01*
X948685D02*
X950378D01*
X949531D01*
Y491490D01*
X948685D01*
X950378D01*
X911860Y494029D02*
X915246D01*
X913553Y495722D02*
Y492336D01*
X916938Y496568D02*
Y493183D01*
X918631Y491490D01*
X920324Y493183D01*
Y496568D01*
M02*
