M48
;Layer_Color=9474304
;FILE_FORMAT=4:4
METRIC,LZ
;TYPE=PLATED
T01F00S00C0.2032
T02F00S00C0.3888
T03F00S00C0.6350
%
T01
X0089408Y0047879
Y004826
Y0048641
X0092329Y00533772
X0096139
X0094234Y0055753
X0090678Y005588
X0091694Y0059563
X00924202Y00617446
X00940135Y00615851
X00948719Y00614554
X0095377Y0061087
X0096393Y0061214
X00969931Y00618712
X0094742Y0064389
X0093726
X0094234Y0064897
Y0063881
X0094742Y0066802
X0095885Y0066675
X0099187Y0066929
Y006731
Y0067691
X0092583Y0067564
T02
X0091694Y0048006
X0094234
X0096774
T03
X0087122Y004826
Y0050165
Y005207
Y0053975
Y005588
Y0057785
Y005969
Y0061595
Y00635
Y0065405
Y006731
X0101346
Y0065405
Y00635
Y0061595
Y005969
Y0057785
Y005588
Y0053975
Y005207
Y0050165
Y004826
M30
