G04*
G04 #@! TF.GenerationSoftware,Altium Limited,Altium Designer,24.9.1 (31)*
G04*
G04 Layer_Physical_Order=2*
G04 Layer_Color=16711680*
%FSLAX44Y44*%
%MOMM*%
G71*
G04*
G04 #@! TF.SameCoordinates,1131B7E0-D030-4B4C-AB5E-23B9FE94597F*
G04*
G04*
G04 #@! TF.FilePolarity,Positive*
G04*
G01*
G75*
%ADD12C,0.2032*%
%ADD14C,0.1270*%
%ADD40C,0.2540*%
%ADD44C,1.2700*%
%ADD45C,1.6000*%
G04:AMPARAMS|DCode=46|XSize=1.6mm|YSize=1.6mm|CornerRadius=0.4mm|HoleSize=0mm|Usage=FLASHONLY|Rotation=0.000|XOffset=0mm|YOffset=0mm|HoleType=Round|Shape=RoundedRectangle|*
%AMROUNDEDRECTD46*
21,1,1.6000,0.8000,0,0,0.0*
21,1,0.8000,1.6000,0,0,0.0*
1,1,0.8000,0.4000,-0.4000*
1,1,0.8000,-0.4000,-0.4000*
1,1,0.8000,-0.4000,0.4000*
1,1,0.8000,0.4000,0.4000*
%
%ADD46ROUNDEDRECTD46*%
%ADD47C,0.3556*%
G36*
X148101Y214968D02*
X145812Y214020D01*
X144060Y212268D01*
X143112Y209979D01*
Y207501D01*
X144060Y205212D01*
X145812Y203460D01*
X148101Y202512D01*
X149340Y202390D01*
X131560D01*
Y215090D01*
X149340D01*
X148101Y214968D01*
D02*
G37*
G36*
X24880Y202390D02*
X7100D01*
X8339Y202512D01*
X10628Y203460D01*
X12380Y205212D01*
X13328Y207501D01*
Y209979D01*
X12380Y212268D01*
X10628Y214020D01*
X8339Y214968D01*
X7100Y215090D01*
X24880D01*
Y202390D01*
D02*
G37*
G36*
X148101Y195918D02*
X145812Y194970D01*
X144060Y193218D01*
X143112Y190929D01*
Y188451D01*
X144060Y186162D01*
X145812Y184410D01*
X148101Y183462D01*
X149340Y183340D01*
X131560D01*
Y196040D01*
X149340D01*
X148101Y195918D01*
D02*
G37*
G36*
X24880Y183340D02*
X7100D01*
X8339Y183462D01*
X10628Y184410D01*
X12380Y186162D01*
X13328Y188451D01*
Y190929D01*
X12380Y193218D01*
X10628Y194970D01*
X8339Y195918D01*
X7100Y196040D01*
X24880D01*
Y183340D01*
D02*
G37*
G36*
X148101Y176868D02*
X145812Y175920D01*
X144060Y174168D01*
X143112Y171879D01*
Y169401D01*
X144060Y167112D01*
X145812Y165360D01*
X148101Y164412D01*
X149340Y164290D01*
X131560D01*
Y176990D01*
X149340D01*
X148101Y176868D01*
D02*
G37*
G36*
X24880Y164290D02*
X7100D01*
X8339Y164412D01*
X10628Y165360D01*
X12380Y167112D01*
X13328Y169401D01*
Y171879D01*
X12380Y174168D01*
X10628Y175920D01*
X8339Y176868D01*
X7100Y176990D01*
X24880D01*
Y164290D01*
D02*
G37*
G36*
X129727Y216861D02*
X130393Y215591D01*
X130185Y215090D01*
Y202390D01*
X130588Y201418D01*
X131560Y201015D01*
X147301D01*
Y197415D01*
X131560D01*
X130588Y197012D01*
X130185Y196040D01*
Y183340D01*
X130588Y182368D01*
X131560Y181965D01*
X147301D01*
Y178365D01*
X131560D01*
X130588Y177962D01*
X130185Y176990D01*
Y164290D01*
X130588Y163318D01*
X131560Y162915D01*
X147301D01*
Y159315D01*
X131560D01*
X130588Y158912D01*
X130185Y157940D01*
Y145240D01*
X130588Y144268D01*
X131560Y143865D01*
X147301D01*
Y140265D01*
X131560D01*
X130588Y139862D01*
X130185Y138890D01*
Y126190D01*
X130588Y125218D01*
X131560Y124815D01*
X147301D01*
Y121215D01*
X131560D01*
X130588Y120812D01*
X130185Y119840D01*
Y107140D01*
X130588Y106168D01*
X131560Y105765D01*
X147301D01*
Y102165D01*
X131560D01*
X130588Y101762D01*
X130185Y100790D01*
Y100221D01*
X129012Y99735D01*
X91592Y137155D01*
Y143509D01*
X91642Y143529D01*
X92631Y144518D01*
X93166Y145811D01*
Y147209D01*
X92631Y148502D01*
X91642Y149491D01*
X90349Y150026D01*
X88951D01*
X88115Y150584D01*
Y150894D01*
X87580Y152186D01*
X86591Y153175D01*
X85299Y153710D01*
X83900D01*
X82608Y153175D01*
X81619Y152186D01*
X81485Y151864D01*
X79923Y151411D01*
X79531Y151687D01*
Y152190D01*
X78996Y153482D01*
X78007Y154471D01*
X76714Y155007D01*
X75315D01*
X74023Y154471D01*
X73034Y153482D01*
X72499Y152190D01*
Y150791D01*
X73034Y149499D01*
X74023Y148510D01*
X75315Y147975D01*
X76714D01*
X76764Y147995D01*
X78818Y145941D01*
Y125055D01*
X77644Y124569D01*
X70699Y131515D01*
Y156459D01*
X96378Y182138D01*
X96883Y182894D01*
X97061Y183786D01*
Y199748D01*
X97711Y200398D01*
X98246Y201691D01*
Y202948D01*
X98608Y203238D01*
X99419Y203571D01*
X103221Y199769D01*
Y156735D01*
X102830Y156344D01*
X102295Y155051D01*
Y153652D01*
X102830Y152360D01*
X103819Y151371D01*
X105111Y150836D01*
X106510D01*
X107802Y151371D01*
X108791Y152360D01*
X109327Y153652D01*
Y155051D01*
X108791Y156344D01*
X108400Y156735D01*
Y200842D01*
X108203Y201833D01*
X107642Y202673D01*
X100112Y210203D01*
X99272Y210765D01*
X98281Y210962D01*
X93456D01*
X92465Y210765D01*
X91624Y210203D01*
X87671Y206250D01*
X85683D01*
X85292Y206641D01*
X83999Y207176D01*
X82601D01*
X81308Y206641D01*
X80319Y205652D01*
X79784Y204359D01*
Y202961D01*
X80319Y201668D01*
X81308Y200679D01*
X82601Y200144D01*
X83999D01*
X85292Y200679D01*
X85683Y201070D01*
X88743D01*
X89735Y201267D01*
X90036Y201469D01*
X90045Y201471D01*
X91383Y201089D01*
X91512Y200970D01*
X91749Y200398D01*
X92399Y199748D01*
Y184751D01*
X66720Y159073D01*
X66215Y158316D01*
X66038Y157424D01*
Y130549D01*
X66215Y129657D01*
X66720Y128901D01*
X75508Y120113D01*
Y105930D01*
X75686Y105038D01*
X75889Y104733D01*
Y95812D01*
X75239Y95162D01*
X74704Y93869D01*
Y92471D01*
X75239Y91178D01*
X76228Y90189D01*
X77521Y89654D01*
X78919D01*
X80212Y90189D01*
X81201Y91178D01*
X81736Y92471D01*
Y93869D01*
X81201Y95162D01*
X80551Y95812D01*
Y102943D01*
X81724Y103429D01*
X130185Y54968D01*
Y49990D01*
X130588Y49018D01*
X131560Y48615D01*
X147301D01*
Y45015D01*
X131560D01*
X130588Y44612D01*
X130185Y43640D01*
Y30940D01*
X130588Y29968D01*
X131560Y29565D01*
X147301D01*
Y25965D01*
X131560D01*
X130588Y25562D01*
X130185Y24590D01*
Y11890D01*
X130588Y10918D01*
X131560Y10515D01*
X147301D01*
Y2499D01*
X9139D01*
Y10515D01*
X24880D01*
X25852Y10918D01*
X26255Y11890D01*
Y24590D01*
X25852Y25562D01*
X24880Y25965D01*
X9139D01*
Y29565D01*
X24880D01*
X25852Y29968D01*
X26255Y30940D01*
Y43640D01*
X25852Y44612D01*
X24880Y45015D01*
X9139D01*
Y48615D01*
X24880D01*
X25852Y49018D01*
X26255Y49990D01*
Y62690D01*
X25852Y63662D01*
X24880Y64065D01*
X9139D01*
Y67665D01*
X24880D01*
X25852Y68068D01*
X26255Y69040D01*
Y81740D01*
X25852Y82712D01*
X24880Y83115D01*
X9139D01*
Y86715D01*
X24880D01*
X25852Y87118D01*
X26255Y88090D01*
Y100790D01*
X25852Y101762D01*
X24880Y102165D01*
X9139D01*
Y105765D01*
X24880D01*
X25852Y106168D01*
X26255Y107140D01*
Y119840D01*
X25852Y120812D01*
X24880Y121215D01*
X9139D01*
Y124815D01*
X24880D01*
X25852Y125218D01*
X26255Y126190D01*
Y138890D01*
X25852Y139862D01*
X24880Y140265D01*
X9139D01*
Y143865D01*
X24880D01*
X25852Y144268D01*
X26255Y145240D01*
Y157940D01*
X25852Y158912D01*
X24880Y159315D01*
X9139D01*
Y162915D01*
X24880D01*
X25852Y163318D01*
X26255Y164290D01*
Y176990D01*
X25852Y177962D01*
X24880Y178365D01*
X9139D01*
Y181965D01*
X24880D01*
X25852Y182368D01*
X26255Y183340D01*
Y196040D01*
X25852Y197012D01*
X24880Y197415D01*
X9139D01*
Y201015D01*
X24880D01*
X25852Y201418D01*
X26255Y202390D01*
Y215090D01*
X26047Y215591D01*
X26713Y216861D01*
X129727D01*
D02*
G37*
G36*
X148101Y157818D02*
X145812Y156870D01*
X144060Y155118D01*
X143112Y152829D01*
Y150351D01*
X144060Y148062D01*
X145812Y146310D01*
X148101Y145362D01*
X149340Y145240D01*
X131560D01*
Y157940D01*
X149340D01*
X148101Y157818D01*
D02*
G37*
G36*
X24880Y145240D02*
X7100D01*
X8339Y145362D01*
X10628Y146310D01*
X12380Y148062D01*
X13328Y150351D01*
Y152829D01*
X12380Y155118D01*
X10628Y156870D01*
X8339Y157818D01*
X7100Y157940D01*
X24880D01*
Y145240D01*
D02*
G37*
G36*
X148101Y138768D02*
X145812Y137820D01*
X144060Y136068D01*
X143112Y133779D01*
Y131301D01*
X144060Y129012D01*
X145812Y127260D01*
X148101Y126312D01*
X149340Y126190D01*
X131560D01*
Y138890D01*
X149340D01*
X148101Y138768D01*
D02*
G37*
G36*
X24880Y126190D02*
X7100D01*
X8339Y126312D01*
X10628Y127260D01*
X12380Y129012D01*
X13328Y131301D01*
Y133779D01*
X12380Y136068D01*
X10628Y137820D01*
X8339Y138768D01*
X7100Y138890D01*
X24880D01*
Y126190D01*
D02*
G37*
G36*
X148101Y119718D02*
X145812Y118770D01*
X144060Y117018D01*
X143112Y114729D01*
Y112251D01*
X144060Y109962D01*
X145812Y108210D01*
X148101Y107262D01*
X149340Y107140D01*
X131560D01*
Y119840D01*
X149340D01*
X148101Y119718D01*
D02*
G37*
G36*
X24880Y107140D02*
X7100D01*
X8339Y107262D01*
X10628Y108210D01*
X12380Y109962D01*
X13328Y112251D01*
Y114729D01*
X12380Y117018D01*
X10628Y118770D01*
X8339Y119718D01*
X7100Y119840D01*
X24880D01*
Y107140D01*
D02*
G37*
G36*
X148101Y100668D02*
X145812Y99720D01*
X144060Y97968D01*
X143112Y95679D01*
Y93201D01*
X144060Y90912D01*
X145812Y89160D01*
X148101Y88212D01*
X149340Y88090D01*
X131560D01*
Y100790D01*
X149340D01*
X148101Y100668D01*
D02*
G37*
G36*
X24880Y88090D02*
X7100D01*
X8339Y88212D01*
X10628Y89160D01*
X12380Y90912D01*
X13328Y93201D01*
Y95679D01*
X12380Y97968D01*
X10628Y99720D01*
X8339Y100668D01*
X7100Y100790D01*
X24880D01*
Y88090D01*
D02*
G37*
G36*
X148101Y81618D02*
X145812Y80670D01*
X144060Y78918D01*
X143112Y76629D01*
Y74151D01*
X144060Y71862D01*
X145812Y70110D01*
X148101Y69162D01*
X149340Y69040D01*
X131560D01*
Y81740D01*
X149340D01*
X148101Y81618D01*
D02*
G37*
G36*
X24880Y69040D02*
X7100D01*
X8339Y69162D01*
X10628Y70110D01*
X12380Y71862D01*
X13328Y74151D01*
Y76629D01*
X12380Y78918D01*
X10628Y80670D01*
X8339Y81618D01*
X7100Y81740D01*
X24880D01*
Y69040D01*
D02*
G37*
G36*
X148101Y62568D02*
X145812Y61620D01*
X144060Y59868D01*
X143112Y57579D01*
Y55101D01*
X144060Y52812D01*
X145812Y51060D01*
X148101Y50112D01*
X149340Y49990D01*
X131560D01*
Y62690D01*
X149340D01*
X148101Y62568D01*
D02*
G37*
G36*
X24880Y49990D02*
X7100D01*
X8339Y50112D01*
X10628Y51060D01*
X12380Y52812D01*
X13328Y55101D01*
Y57579D01*
X12380Y59868D01*
X10628Y61620D01*
X8339Y62568D01*
X7100Y62690D01*
X24880D01*
Y49990D01*
D02*
G37*
G36*
X148101Y43518D02*
X145812Y42570D01*
X144060Y40818D01*
X143112Y38529D01*
Y36051D01*
X144060Y33762D01*
X145812Y32010D01*
X148101Y31062D01*
X149340Y30940D01*
X131560D01*
Y43640D01*
X149340D01*
X148101Y43518D01*
D02*
G37*
G36*
X24880Y30940D02*
X7100D01*
X8339Y31062D01*
X10628Y32010D01*
X12380Y33762D01*
X13328Y36051D01*
Y38529D01*
X12380Y40818D01*
X10628Y42570D01*
X8339Y43518D01*
X7100Y43640D01*
X24880D01*
Y30940D01*
D02*
G37*
G36*
X148101Y24468D02*
X145812Y23520D01*
X144060Y21768D01*
X143112Y19479D01*
Y17001D01*
X144060Y14712D01*
X145812Y12960D01*
X148101Y12012D01*
X149340Y11890D01*
X131560D01*
Y24590D01*
X149340D01*
X148101Y24468D01*
D02*
G37*
G36*
X24880Y11890D02*
X7100D01*
X8339Y12012D01*
X10628Y12960D01*
X12380Y14712D01*
X13328Y17001D01*
Y19479D01*
X12380Y21768D01*
X10628Y23520D01*
X8339Y24468D01*
X7100Y24590D01*
X24880D01*
Y11890D01*
D02*
G37*
%LPC*%
G36*
X62409Y214796D02*
X61011D01*
X59718Y214261D01*
X58729Y213272D01*
X58194Y211979D01*
Y211427D01*
X40829Y194061D01*
X40267Y193221D01*
X40070Y192230D01*
Y96823D01*
X39679Y96432D01*
X39144Y95139D01*
Y93741D01*
X39679Y92448D01*
X40668Y91459D01*
X41961Y90924D01*
X43359D01*
X44652Y91459D01*
X45641Y92448D01*
X46176Y93741D01*
Y95139D01*
X45641Y96432D01*
X45250Y96823D01*
Y191157D01*
X61856Y207764D01*
X62409D01*
X63702Y208299D01*
X64691Y209288D01*
X65226Y210581D01*
Y211979D01*
X64691Y213272D01*
X63702Y214261D01*
X62409Y214796D01*
D02*
G37*
G36*
X107620Y25073D02*
X104255D01*
Y16335D01*
X112993D01*
Y19700D01*
X112584Y21756D01*
X111419Y23500D01*
X109676Y24664D01*
X107620Y25073D01*
D02*
G37*
G36*
X102985D02*
X99620D01*
X97564Y24664D01*
X95821Y23500D01*
X94656Y21756D01*
X94247Y19700D01*
Y16335D01*
X102985D01*
Y25073D01*
D02*
G37*
G36*
X60781Y156602D02*
X59383D01*
X58091Y156066D01*
X57101Y155077D01*
X56566Y153785D01*
Y152386D01*
X57101Y151094D01*
X58091Y150105D01*
X58140Y150084D01*
Y133466D01*
X53646Y128972D01*
X53225Y128342D01*
X53077Y127599D01*
Y56188D01*
X53225Y55445D01*
X53646Y54815D01*
X76278Y32183D01*
Y24777D01*
X74642Y24338D01*
X72528Y23118D01*
X70802Y21392D01*
X69582Y19278D01*
X68950Y16920D01*
Y14480D01*
X69582Y12122D01*
X70802Y10008D01*
X72528Y8282D01*
X74642Y7062D01*
X77000Y6430D01*
X79440D01*
X81798Y7062D01*
X83912Y8282D01*
X85638Y10008D01*
X86858Y12122D01*
X87490Y14480D01*
Y16920D01*
X86858Y19278D01*
X85638Y21392D01*
X83912Y23118D01*
X81798Y24338D01*
X80162Y24777D01*
Y32987D01*
X80014Y33730D01*
X79593Y34361D01*
X56961Y56993D01*
Y126794D01*
X61456Y131288D01*
X61877Y131918D01*
X62024Y132662D01*
X62024Y132662D01*
Y150084D01*
X62074Y150105D01*
X63063Y151094D01*
X63598Y152386D01*
Y153785D01*
X63063Y155077D01*
X62074Y156066D01*
X60781Y156602D01*
D02*
G37*
G36*
X54040Y24970D02*
X51600D01*
X49242Y24338D01*
X47128Y23118D01*
X45402Y21392D01*
X44182Y19278D01*
X43550Y16920D01*
Y14480D01*
X44182Y12122D01*
X45402Y10008D01*
X47128Y8282D01*
X49242Y7062D01*
X51600Y6430D01*
X54040D01*
X56398Y7062D01*
X58512Y8282D01*
X60238Y10008D01*
X61458Y12122D01*
X62090Y14480D01*
Y16920D01*
X61458Y19278D01*
X60238Y21392D01*
X58512Y23118D01*
X56398Y24338D01*
X54040Y24970D01*
D02*
G37*
G36*
X112993Y15065D02*
X104255D01*
Y6327D01*
X107620D01*
X109676Y6736D01*
X111419Y7901D01*
X112584Y9644D01*
X112993Y11700D01*
Y15065D01*
D02*
G37*
G36*
X102985D02*
X94247D01*
Y11700D01*
X94656Y9644D01*
X95821Y7901D01*
X97564Y6736D01*
X99620Y6327D01*
X102985D01*
Y15065D01*
D02*
G37*
%LPD*%
G54D12*
X94730Y183786D02*
Y202390D01*
X77839Y105930D02*
Y121079D01*
Y105930D02*
X78220Y105549D01*
Y93170D02*
Y105549D01*
X68368Y130549D02*
X77839Y121079D01*
X68368Y130549D02*
Y157424D01*
X94730Y183786D01*
G54D14*
X80760Y107140D02*
Y146746D01*
X76015Y151491D02*
X80760Y146746D01*
X55019Y127599D02*
X60082Y132662D01*
Y153086D01*
X80760Y107140D02*
X131560Y56340D01*
X55019Y56188D02*
Y127599D01*
Y56188D02*
X78220Y32987D01*
Y13160D02*
Y32987D01*
X89650Y136350D02*
X131560Y94440D01*
X89650Y136350D02*
Y146510D01*
X84599Y122351D02*
X131560Y75390D01*
X84599Y122351D02*
Y150195D01*
X135370Y208740D02*
X137910D01*
G54D40*
X88743Y203660D02*
X93456Y208372D01*
X98281D01*
X105811Y154352D02*
Y200842D01*
X98281Y208372D02*
X105811Y200842D01*
X83300Y203660D02*
X88743D01*
X42660Y192230D02*
X61710Y211280D01*
X42660Y94440D02*
Y192230D01*
G54D44*
X7100Y18240D02*
D03*
Y37290D02*
D03*
Y56340D02*
D03*
Y75390D02*
D03*
Y94440D02*
D03*
Y113490D02*
D03*
Y132540D02*
D03*
Y151590D02*
D03*
Y170640D02*
D03*
Y189690D02*
D03*
Y208740D02*
D03*
X149340D02*
D03*
Y189690D02*
D03*
Y170640D02*
D03*
Y151590D02*
D03*
Y132540D02*
D03*
Y113490D02*
D03*
Y94440D02*
D03*
Y75390D02*
D03*
Y56340D02*
D03*
Y37290D02*
D03*
Y18240D02*
D03*
G54D45*
X52820Y15700D02*
D03*
X78220D02*
D03*
G54D46*
X103620D02*
D03*
G54D47*
X99810Y147780D02*
D03*
X59170Y69412D02*
D03*
X97270D02*
D03*
X83300Y179530D02*
D03*
X73140D02*
D03*
X78220Y184610D02*
D03*
Y174450D02*
D03*
X94730Y202390D02*
D03*
X76015Y151491D02*
D03*
X60082Y153086D02*
D03*
X83300Y203660D02*
D03*
X61710Y211280D02*
D03*
X78220Y93170D02*
D03*
X105811Y154352D02*
D03*
X42660Y94440D02*
D03*
X127750Y212550D02*
D03*
Y208740D02*
D03*
Y204930D02*
D03*
X29960Y22050D02*
D03*
Y14430D02*
D03*
Y18240D02*
D03*
X84599Y150195D02*
D03*
X89650Y146510D02*
D03*
X52820Y131270D02*
D03*
M02*
