G04*
G04 #@! TF.GenerationSoftware,Altium Limited,Altium Designer,24.9.1 (31)*
G04*
G04 Layer_Physical_Order=2*
G04 Layer_Color=16711680*
%FSLAX44Y44*%
%MOMM*%
G71*
G04*
G04 #@! TF.SameCoordinates,B6DCB2D1-0443-4E39-BFFB-B68A34243BA1*
G04*
G04*
G04 #@! TF.FilePolarity,Positive*
G04*
G01*
G75*
%ADD13C,0.1270*%
%ADD39C,0.2540*%
%ADD40C,0.2032*%
%ADD43C,1.2700*%
%ADD44C,1.6000*%
G04:AMPARAMS|DCode=45|XSize=1.6mm|YSize=1.6mm|CornerRadius=0.4mm|HoleSize=0mm|Usage=FLASHONLY|Rotation=0.000|XOffset=0mm|YOffset=0mm|HoleType=Round|Shape=RoundedRectangle|*
%AMROUNDEDRECTD45*
21,1,1.6000,0.8000,0,0,0.0*
21,1,0.8000,1.6000,0,0,0.0*
1,1,0.8000,0.4000,-0.4000*
1,1,0.8000,-0.4000,-0.4000*
1,1,0.8000,-0.4000,0.4000*
1,1,0.8000,0.4000,0.4000*
%
%ADD45ROUNDEDRECTD45*%
%ADD46C,0.3556*%
G36*
X1012221Y679328D02*
X1009932Y678380D01*
X1008180Y676628D01*
X1007232Y674339D01*
Y671861D01*
X1008180Y669572D01*
X1009932Y667820D01*
X1012221Y666872D01*
X1013460Y666750D01*
X995680D01*
Y679450D01*
X1013460D01*
X1012221Y679328D01*
D02*
G37*
G36*
X889000Y666750D02*
X871220D01*
X872459Y666872D01*
X874748Y667820D01*
X876500Y669572D01*
X877448Y671861D01*
Y674339D01*
X876500Y676628D01*
X874748Y678380D01*
X872459Y679328D01*
X871220Y679450D01*
X889000D01*
Y666750D01*
D02*
G37*
G36*
X1012221Y660278D02*
X1009932Y659330D01*
X1008180Y657578D01*
X1007232Y655289D01*
Y652811D01*
X1008180Y650522D01*
X1009932Y648770D01*
X1012221Y647822D01*
X1013460Y647700D01*
X995680D01*
Y660400D01*
X1013460D01*
X1012221Y660278D01*
D02*
G37*
G36*
X889000Y647700D02*
X871220D01*
X872459Y647822D01*
X874748Y648770D01*
X876500Y650522D01*
X877448Y652811D01*
Y655289D01*
X876500Y657578D01*
X874748Y659330D01*
X872459Y660278D01*
X871220Y660400D01*
X889000D01*
Y647700D01*
D02*
G37*
G36*
X1012221Y641228D02*
X1009932Y640280D01*
X1008180Y638528D01*
X1007232Y636239D01*
Y633761D01*
X1008180Y631472D01*
X1009932Y629720D01*
X1012221Y628772D01*
X1013460Y628650D01*
X995680D01*
Y641350D01*
X1013460D01*
X1012221Y641228D01*
D02*
G37*
G36*
X889000Y628650D02*
X871220D01*
X872459Y628772D01*
X874748Y629720D01*
X876500Y631472D01*
X877448Y633761D01*
Y636239D01*
X876500Y638528D01*
X874748Y640280D01*
X872459Y641228D01*
X871220Y641350D01*
X889000D01*
Y628650D01*
D02*
G37*
G36*
X993848Y681221D02*
X994513Y679951D01*
X994305Y679450D01*
Y666750D01*
X994708Y665778D01*
X995680Y665375D01*
X1011421D01*
Y661775D01*
X995680D01*
X994708Y661372D01*
X994305Y660400D01*
Y647700D01*
X994708Y646728D01*
X995680Y646325D01*
X1011421D01*
Y642725D01*
X995680D01*
X994708Y642322D01*
X994305Y641350D01*
Y628650D01*
X994708Y627678D01*
X995680Y627275D01*
X1011421D01*
Y623675D01*
X995680D01*
X994708Y623272D01*
X994305Y622300D01*
Y609600D01*
X994708Y608628D01*
X995680Y608225D01*
X1011421D01*
Y604625D01*
X995680D01*
X994708Y604222D01*
X994305Y603250D01*
Y590550D01*
X994708Y589578D01*
X995680Y589175D01*
X1011421D01*
Y585575D01*
X995680D01*
X994708Y585172D01*
X994305Y584200D01*
Y571500D01*
X994708Y570528D01*
X995680Y570125D01*
X1011421D01*
Y566525D01*
X995680D01*
X994708Y566122D01*
X994305Y565150D01*
Y564581D01*
X993132Y564095D01*
X955712Y601515D01*
Y607869D01*
X955762Y607889D01*
X956751Y608878D01*
X957286Y610171D01*
Y611569D01*
X956751Y612862D01*
X955762Y613851D01*
X954469Y614386D01*
X953071D01*
X952861Y614526D01*
X952178Y615391D01*
X951700Y616546D01*
X950711Y617535D01*
X949419Y618070D01*
X948020D01*
X946728Y617535D01*
X945739Y616546D01*
X945605Y616224D01*
X944043Y615771D01*
X943651Y616047D01*
Y616550D01*
X943116Y617842D01*
X942127Y618831D01*
X940834Y619367D01*
X939436D01*
X938143Y618831D01*
X937154Y617842D01*
X936619Y616550D01*
Y615151D01*
X937154Y613859D01*
X938143Y612870D01*
X939436Y612335D01*
X940834D01*
X940884Y612355D01*
X942938Y610301D01*
Y589415D01*
X941764Y588929D01*
X934819Y595875D01*
Y620819D01*
X960498Y646498D01*
X961003Y647254D01*
X961181Y648146D01*
Y664108D01*
X961831Y664758D01*
X962366Y666051D01*
Y667308D01*
X962728Y667598D01*
X963539Y667931D01*
X967341Y664129D01*
Y621095D01*
X966950Y620704D01*
X966415Y619411D01*
Y618013D01*
X966950Y616720D01*
X967939Y615731D01*
X969231Y615196D01*
X970630D01*
X971922Y615731D01*
X972911Y616720D01*
X973447Y618013D01*
Y619411D01*
X972911Y620704D01*
X972520Y621095D01*
Y665202D01*
X972323Y666193D01*
X971762Y667033D01*
X964232Y674564D01*
X963392Y675125D01*
X962401Y675322D01*
X957576D01*
X956585Y675125D01*
X955744Y674564D01*
X951791Y670610D01*
X949803D01*
X949412Y671001D01*
X948119Y671536D01*
X946721D01*
X945428Y671001D01*
X944439Y670012D01*
X943904Y668719D01*
Y667321D01*
X944439Y666028D01*
X945428Y665039D01*
X946721Y664504D01*
X948119D01*
X949412Y665039D01*
X949803Y665430D01*
X952863D01*
X953855Y665627D01*
X954156Y665829D01*
X954165Y665831D01*
X955503Y665449D01*
X955632Y665330D01*
X955869Y664758D01*
X956519Y664108D01*
Y649111D01*
X930840Y623433D01*
X930335Y622676D01*
X930158Y621785D01*
Y594909D01*
X930335Y594017D01*
X930840Y593261D01*
X939628Y584473D01*
Y570290D01*
X939806Y569398D01*
X940009Y569094D01*
Y560172D01*
X939359Y559522D01*
X938824Y558229D01*
Y556831D01*
X939359Y555538D01*
X940348Y554549D01*
X941641Y554014D01*
X943039D01*
X944332Y554549D01*
X945321Y555538D01*
X945856Y556831D01*
Y558229D01*
X945321Y559522D01*
X944671Y560172D01*
Y567303D01*
X945844Y567789D01*
X994305Y519328D01*
Y514350D01*
X994708Y513378D01*
X995680Y512975D01*
X1011421D01*
Y509375D01*
X995680D01*
X994708Y508972D01*
X994305Y508000D01*
Y495300D01*
X994708Y494328D01*
X995680Y493925D01*
X1011421D01*
Y490325D01*
X995680D01*
X994708Y489922D01*
X994305Y488950D01*
Y476250D01*
X994708Y475278D01*
X995680Y474875D01*
X1011421D01*
Y466859D01*
X873259D01*
Y474875D01*
X889000D01*
X889972Y475278D01*
X890375Y476250D01*
Y488950D01*
X889972Y489922D01*
X889000Y490325D01*
X873259D01*
Y493925D01*
X889000D01*
X889972Y494328D01*
X890375Y495300D01*
Y508000D01*
X889972Y508972D01*
X889000Y509375D01*
X873259D01*
Y512975D01*
X889000D01*
X889972Y513378D01*
X890375Y514350D01*
Y527050D01*
X889972Y528022D01*
X889000Y528425D01*
X873259D01*
Y532025D01*
X889000D01*
X889972Y532428D01*
X890375Y533400D01*
Y546100D01*
X889972Y547072D01*
X889000Y547475D01*
X873259D01*
Y551075D01*
X889000D01*
X889972Y551478D01*
X890375Y552450D01*
Y565150D01*
X889972Y566122D01*
X889000Y566525D01*
X873259D01*
Y570125D01*
X889000D01*
X889972Y570528D01*
X890375Y571500D01*
Y584200D01*
X889972Y585172D01*
X889000Y585575D01*
X873259D01*
Y589175D01*
X889000D01*
X889972Y589578D01*
X890375Y590550D01*
Y603250D01*
X889972Y604222D01*
X889000Y604625D01*
X873259D01*
Y608225D01*
X889000D01*
X889972Y608628D01*
X890375Y609600D01*
Y622300D01*
X889972Y623272D01*
X889000Y623675D01*
X873259D01*
Y627275D01*
X889000D01*
X889972Y627678D01*
X890375Y628650D01*
Y641350D01*
X889972Y642322D01*
X889000Y642725D01*
X873259D01*
Y646325D01*
X889000D01*
X889972Y646728D01*
X890375Y647700D01*
Y660400D01*
X889972Y661372D01*
X889000Y661775D01*
X873259D01*
Y665375D01*
X889000D01*
X889972Y665778D01*
X890375Y666750D01*
Y679450D01*
X890167Y679951D01*
X890833Y681221D01*
X993848D01*
D02*
G37*
G36*
X1012221Y622178D02*
X1009932Y621230D01*
X1008180Y619478D01*
X1007232Y617189D01*
Y614711D01*
X1008180Y612422D01*
X1009932Y610670D01*
X1012221Y609722D01*
X1013460Y609600D01*
X995680D01*
Y622300D01*
X1013460D01*
X1012221Y622178D01*
D02*
G37*
G36*
X889000Y609600D02*
X871220D01*
X872459Y609722D01*
X874748Y610670D01*
X876500Y612422D01*
X877448Y614711D01*
Y617189D01*
X876500Y619478D01*
X874748Y621230D01*
X872459Y622178D01*
X871220Y622300D01*
X889000D01*
Y609600D01*
D02*
G37*
G36*
X1012221Y603128D02*
X1009932Y602180D01*
X1008180Y600428D01*
X1007232Y598139D01*
Y595661D01*
X1008180Y593372D01*
X1009932Y591620D01*
X1012221Y590672D01*
X1013460Y590550D01*
X995680D01*
Y603250D01*
X1013460D01*
X1012221Y603128D01*
D02*
G37*
G36*
X889000Y590550D02*
X871220D01*
X872459Y590672D01*
X874748Y591620D01*
X876500Y593372D01*
X877448Y595661D01*
Y598139D01*
X876500Y600428D01*
X874748Y602180D01*
X872459Y603128D01*
X871220Y603250D01*
X889000D01*
Y590550D01*
D02*
G37*
G36*
X1012221Y584078D02*
X1009932Y583130D01*
X1008180Y581378D01*
X1007232Y579089D01*
Y576611D01*
X1008180Y574322D01*
X1009932Y572570D01*
X1012221Y571622D01*
X1013460Y571500D01*
X995680D01*
Y584200D01*
X1013460D01*
X1012221Y584078D01*
D02*
G37*
G36*
X889000Y571500D02*
X871220D01*
X872459Y571622D01*
X874748Y572570D01*
X876500Y574322D01*
X877448Y576611D01*
Y579089D01*
X876500Y581378D01*
X874748Y583130D01*
X872459Y584078D01*
X871220Y584200D01*
X889000D01*
Y571500D01*
D02*
G37*
G36*
X1012221Y565028D02*
X1009932Y564080D01*
X1008180Y562328D01*
X1007232Y560039D01*
Y557561D01*
X1008180Y555272D01*
X1009932Y553520D01*
X1012221Y552572D01*
X1013460Y552450D01*
X995680D01*
Y565150D01*
X1013460D01*
X1012221Y565028D01*
D02*
G37*
G36*
X889000Y552450D02*
X871220D01*
X872459Y552572D01*
X874748Y553520D01*
X876500Y555272D01*
X877448Y557561D01*
Y560039D01*
X876500Y562328D01*
X874748Y564080D01*
X872459Y565028D01*
X871220Y565150D01*
X889000D01*
Y552450D01*
D02*
G37*
G36*
X1012221Y545978D02*
X1009932Y545030D01*
X1008180Y543278D01*
X1007232Y540989D01*
Y538511D01*
X1008180Y536222D01*
X1009932Y534470D01*
X1012221Y533522D01*
X1013460Y533400D01*
X995680D01*
Y546100D01*
X1013460D01*
X1012221Y545978D01*
D02*
G37*
G36*
X889000Y533400D02*
X871220D01*
X872459Y533522D01*
X874748Y534470D01*
X876500Y536222D01*
X877448Y538511D01*
Y540989D01*
X876500Y543278D01*
X874748Y545030D01*
X872459Y545978D01*
X871220Y546100D01*
X889000D01*
Y533400D01*
D02*
G37*
G36*
X1012221Y526928D02*
X1009932Y525980D01*
X1008180Y524228D01*
X1007232Y521939D01*
Y519461D01*
X1008180Y517172D01*
X1009932Y515420D01*
X1012221Y514472D01*
X1013460Y514350D01*
X995680D01*
Y527050D01*
X1013460D01*
X1012221Y526928D01*
D02*
G37*
G36*
X889000Y514350D02*
X871220D01*
X872459Y514472D01*
X874748Y515420D01*
X876500Y517172D01*
X877448Y519461D01*
Y521939D01*
X876500Y524228D01*
X874748Y525980D01*
X872459Y526928D01*
X871220Y527050D01*
X889000D01*
Y514350D01*
D02*
G37*
G36*
X1012221Y507878D02*
X1009932Y506930D01*
X1008180Y505178D01*
X1007232Y502889D01*
Y500411D01*
X1008180Y498122D01*
X1009932Y496370D01*
X1012221Y495422D01*
X1013460Y495300D01*
X995680D01*
Y508000D01*
X1013460D01*
X1012221Y507878D01*
D02*
G37*
G36*
X889000Y495300D02*
X871220D01*
X872459Y495422D01*
X874748Y496370D01*
X876500Y498122D01*
X877448Y500411D01*
Y502889D01*
X876500Y505178D01*
X874748Y506930D01*
X872459Y507878D01*
X871220Y508000D01*
X889000D01*
Y495300D01*
D02*
G37*
G36*
X1012221Y488828D02*
X1009932Y487880D01*
X1008180Y486128D01*
X1007232Y483839D01*
Y481361D01*
X1008180Y479072D01*
X1009932Y477320D01*
X1012221Y476372D01*
X1013460Y476250D01*
X995680D01*
Y488950D01*
X1013460D01*
X1012221Y488828D01*
D02*
G37*
G36*
X889000Y476250D02*
X871220D01*
X872459Y476372D01*
X874748Y477320D01*
X876500Y479072D01*
X877448Y481361D01*
Y483839D01*
X876500Y486128D01*
X874748Y487880D01*
X872459Y488828D01*
X871220Y488950D01*
X889000D01*
Y476250D01*
D02*
G37*
%LPC*%
G36*
X926529Y679156D02*
X925131D01*
X923838Y678621D01*
X922849Y677632D01*
X922314Y676339D01*
Y675787D01*
X904949Y658421D01*
X904387Y657581D01*
X904190Y656590D01*
Y561183D01*
X903799Y560792D01*
X903264Y559499D01*
Y558101D01*
X903799Y556808D01*
X904788Y555819D01*
X906081Y555284D01*
X907479D01*
X908772Y555819D01*
X909761Y556808D01*
X910296Y558101D01*
Y559499D01*
X909761Y560792D01*
X909370Y561183D01*
Y655517D01*
X925976Y672124D01*
X926529D01*
X927822Y672659D01*
X928811Y673648D01*
X929346Y674941D01*
Y676339D01*
X928811Y677632D01*
X927822Y678621D01*
X926529Y679156D01*
D02*
G37*
G36*
X971740Y489433D02*
X968375D01*
Y480695D01*
X977113D01*
Y484060D01*
X976704Y486116D01*
X975539Y487859D01*
X973796Y489024D01*
X971740Y489433D01*
D02*
G37*
G36*
X967105D02*
X963740D01*
X961684Y489024D01*
X959940Y487859D01*
X958776Y486116D01*
X958367Y484060D01*
Y480695D01*
X967105D01*
Y489433D01*
D02*
G37*
G36*
X924902Y620962D02*
X923503D01*
X922210Y620426D01*
X921221Y619437D01*
X920686Y618145D01*
Y616746D01*
X921221Y615454D01*
X922210Y614465D01*
X922260Y614445D01*
Y597826D01*
X917766Y593332D01*
X917345Y592702D01*
X917197Y591959D01*
Y520548D01*
X917345Y519805D01*
X917766Y519175D01*
X940398Y496543D01*
Y489137D01*
X938762Y488698D01*
X936648Y487478D01*
X934922Y485752D01*
X933702Y483638D01*
X933070Y481280D01*
Y478840D01*
X933702Y476482D01*
X934922Y474368D01*
X936648Y472642D01*
X938762Y471422D01*
X941120Y470790D01*
X943560D01*
X945918Y471422D01*
X948032Y472642D01*
X949758Y474368D01*
X950978Y476482D01*
X951610Y478840D01*
Y481280D01*
X950978Y483638D01*
X949758Y485752D01*
X948032Y487478D01*
X945918Y488698D01*
X944282Y489137D01*
Y497347D01*
X944135Y498091D01*
X943713Y498721D01*
X921081Y521353D01*
Y591154D01*
X925576Y595648D01*
X925997Y596278D01*
X926144Y597022D01*
X926144Y597022D01*
Y614445D01*
X926194Y614465D01*
X927183Y615454D01*
X927718Y616746D01*
Y618145D01*
X927183Y619437D01*
X926194Y620426D01*
X924902Y620962D01*
D02*
G37*
G36*
X918160Y489330D02*
X915720D01*
X913362Y488698D01*
X911248Y487478D01*
X909522Y485752D01*
X908302Y483638D01*
X907670Y481280D01*
Y478840D01*
X908302Y476482D01*
X909522Y474368D01*
X911248Y472642D01*
X913362Y471422D01*
X915720Y470790D01*
X918160D01*
X920518Y471422D01*
X922632Y472642D01*
X924358Y474368D01*
X925578Y476482D01*
X926210Y478840D01*
Y481280D01*
X925578Y483638D01*
X924358Y485752D01*
X922632Y487478D01*
X920518Y488698D01*
X918160Y489330D01*
D02*
G37*
G36*
X977113Y479425D02*
X968375D01*
Y470687D01*
X971740D01*
X973796Y471096D01*
X975539Y472261D01*
X976704Y474004D01*
X977113Y476060D01*
Y479425D01*
D02*
G37*
G36*
X967105D02*
X958367D01*
Y476060D01*
X958776Y474004D01*
X959940Y472261D01*
X961684Y471096D01*
X963740Y470687D01*
X967105D01*
Y479425D01*
D02*
G37*
%LPD*%
G54D13*
X944880Y571500D02*
Y611105D01*
X940135Y615851D02*
X944880Y611105D01*
X919139Y591959D02*
X924202Y597022D01*
Y617446D01*
X944880Y571500D02*
X995680Y520700D01*
X919139Y520548D02*
Y591959D01*
Y520548D02*
X942340Y497347D01*
Y477520D02*
Y497347D01*
X953770Y600710D02*
X995680Y558800D01*
X953770Y600710D02*
Y610870D01*
X948719Y586711D02*
X995680Y539750D01*
X948719Y586711D02*
Y614554D01*
X999490Y673100D02*
X1002030D01*
G54D39*
X952863Y668020D02*
X957576Y672732D01*
X962401D01*
X969931Y618712D02*
Y665202D01*
X962401Y672732D02*
X969931Y665202D01*
X947420Y668020D02*
X952863D01*
X906780Y656590D02*
X925830Y675640D01*
X906780Y558800D02*
Y656590D01*
G54D40*
X958850Y648146D02*
Y666750D01*
X941959Y570290D02*
Y585438D01*
Y570290D02*
X942340Y569909D01*
Y557530D02*
Y569909D01*
X932488Y594909D02*
X941959Y585438D01*
X932488Y594909D02*
Y621785D01*
X958850Y648146D01*
G54D43*
X871220Y482600D02*
D03*
Y501650D02*
D03*
Y520700D02*
D03*
Y539750D02*
D03*
Y558800D02*
D03*
Y577850D02*
D03*
Y596900D02*
D03*
Y615950D02*
D03*
Y635000D02*
D03*
Y654050D02*
D03*
Y673100D02*
D03*
X1013460D02*
D03*
Y654050D02*
D03*
Y635000D02*
D03*
Y615950D02*
D03*
Y596900D02*
D03*
Y577850D02*
D03*
Y558800D02*
D03*
Y539750D02*
D03*
Y520700D02*
D03*
Y501650D02*
D03*
Y482600D02*
D03*
G54D44*
X916940Y480060D02*
D03*
X942340D02*
D03*
G54D45*
X967740D02*
D03*
G54D46*
X923290Y533772D02*
D03*
X961390D02*
D03*
X947420Y643890D02*
D03*
X937260D02*
D03*
X942340Y648970D02*
D03*
Y638810D02*
D03*
X958850Y666750D02*
D03*
X940135Y615851D02*
D03*
X924202Y617446D02*
D03*
X947420Y668020D02*
D03*
X925830Y675640D02*
D03*
X942340Y557530D02*
D03*
X969931Y618712D02*
D03*
X906780Y558800D02*
D03*
X991870Y676910D02*
D03*
Y673100D02*
D03*
Y669290D02*
D03*
X894080Y486410D02*
D03*
Y478790D02*
D03*
Y482600D02*
D03*
X948719Y614554D02*
D03*
X953770Y610870D02*
D03*
X963930Y612140D02*
D03*
X916940Y595630D02*
D03*
M02*
